<?xml version="1.0" encoding="UTF-8"?>
<svg version="1.1" viewBox="0 0 1080 1080" xmlns="http://www.w3.org/2000/svg">
  <path
    d="m443.52 12.07-55.674 120.93c-26.019 9.483-51.038 21.457-74.749 35.762l-122.63-35.664-128.39 155.03 60.402 119.07c-8.7165 26.269-14.875 53.295-18.409 80.744l-104.07 73.922 41.496 197.5 127.72 21.872c7.6772 11.666 16.542 24.859 24.759 35.316 9.2408 11.917 19.301 23.154 29.834 33.938l-6.6667 127.57 180.06 89.871 102.23-85.962c27.599 2.5414 55.357 2.3912 82.927-0.44324l95.698 84.938 11.68-5.4718 170.65-79.92-3.7714-133.56c19.188-20.055 36.357-41.916 51.309-65.299l125.54-22.32 46.537-195.78-106.87-80.154c-3.8359-27.498-10.307-54.546-19.318-80.807l60.589-112.18-124.26-158.26-129.28 34.07c-21.468-12.565-43.941-23.25-67.222-32.009l-45.996-121.1zm99.322 275.57a252.24 252.24 0 0 1 250.12 220.44l-123.5 2.4054c-12.988 0.0899-25.186 6.5969-32.496 17.333l1.773-2.3406-37.325 44.521-42.276-185.18-86.258 155.48-21.434-18.707-3.1001-1.6122c-11.723-6.1118-24.732-9.368-37.953-9.492h-116.89a252.24 252.24 0 0 1 249.34-222.85zm-6.8248 260.04 34.425 150.78 108.44-129.35 113.54-2.2136a252.24 252.24 0 0 1-249.58 225.23 252.24 252.24 0 0 1-249.34-222.85h116.34c3.336 0.0313 6.5239 1.0776 9.575 2.395l69.594 60.737z"
    fill="#fff"
  />
</svg>
