<?xml version="1.0" encoding="UTF-8"?>
<svg width="2035" height="512" version="1.1" viewBox="0 0 2035 512" xmlns="http://www.w3.org/2000/svg">
 <polygon transform="matrix(1.0279 0 0 -1.0279 -.30158 512.56)" points="497.41 234.79 465.81 364.59 415.01 428.69 299.01 484.99 216.11 485.49 95.81 427.29 43.81 364.19 14.61 233.79 31.71 153.79 115.71 49.89 188.41 15.59 322.71 14.79 396.61 49.69 478.71 155.09" fill="#136041"/>
 <path d="m216.38 0.0010576-26.966 58.988c-13.437 4.8866-26.338 11.116-38.523 18.596l-59.737-17.067-60.493 73.52 29.537 57.913c-4.4686 13.549-7.6141 27.492-9.4005 41.647l-50.584 36.146 19.938 93.123 63.716 12.857c7.7806 11.952 16.75 23.076 26.779 33.215l-3.0584 62.125 85.4 40.662 49.528-40.467c14.263 1.3136 28.613 1.1909 42.851-0.35651l46.766 41.099 3.991-1.88 82.116-38.681-2.0039-64.966c9.9248-10.322 18.749-21.635 26.346-33.772l61.096-11.061 21.753-92.674-52.104-38.815c-1.9436-14.166-5.305-28.091-10.034-41.585l29.289-54.789-59.135-74.652-62.756 16.664c-11.2-6.5994-22.975-12.156-35.187-16.611l-22.259-59.178h-96.866zm45.261 186.67c12.305-0.10361 24.689 2.9201 35.917 9.1696 25.665 14.284 40.177 42.573 36.811 71.752-3.3653 29.18-23.933 53.422-52.176 61.491-28.242 8.0693-58.515-1.6454-76.787-24.643l-4e-3 -4e-3c-25.042-31.481-19.784-77.109 11.761-102.07l-4.173-5.2743h0.01l4.1748 5.2725c12.952-10.258 28.645-15.56 44.465-15.694z" fill="#136041"/>
 <path d="m225.98 62.71-20.444 44.404c-9.5525 3.4816-18.738 7.8766-27.443 13.129l-45.03-13.093-47.141 56.922 22.178 43.719c-3.2009 9.6462-5.4627 19.57-6.7604 29.65l-38.211 27.141 15.235 72.516 46.796 8.0138c2.8192 4.2853 6.1632 9.1264 9.1847 12.973 3e-3 4e-3 7e-3 0.01 0.01 0.0132 3.3924 4.3746 7.0871 8.4981 10.954 12.457l-2.4486 46.845 66.112 32.997 37.532-31.562c10.135 0.93344 20.329 0.87765 30.453-0.16324l35.138 31.187 66.948-31.352-1.3847-49.042c7.0444-7.3631 13.351-15.389 18.84-23.974l46.092-8.1959 17.088-71.886-39.24-29.43c-1.4084-10.097-3.7836-20.026-7.0925-29.669l22.247-41.193-45.627-58.108-47.469 12.509c-7.8827-4.6136-16.135-8.5354-24.683-11.751l-16.887-44.465zm33.734 143.78c1.5732-0.0342 3.1497 4e-3 4.7227 0.11259 7.5508 0.52261 15.044 2.7 21.923 6.5709 18.344 10.323 28.642 30.624 26.139 51.524-2.503 20.901-17.303 38.196-37.566 43.894-20.263 5.6992-41.913-1.3441-54.942-17.875v-2e-3c-17.876-22.672-13.965-55.333 8.7587-73.143v-2e-3c9.0592-7.1025 19.952-10.84 30.965-11.08z" fill="#fff"/>
 <circle transform="scale(1,-1)" cx="262.44" cy="-256.51" r="92.616" fill="#136041"/>
 <path d="m268.43 199.58-31.671 57.086-7.8693-6.8673-1.1408-0.59479c-4.3045-2.2442-9.0795-3.4369-13.934-3.4825l-0.0506-2e-3h-46.101v21.587h45.949c1.1576 0.0109 2.2798 0.29827 3.3474 0.73177l25.722 22.448 17.259-31.11 12.641 55.361 39.815-47.495 49.661-0.96634-0.4203-21.582-52.834 1.0264h0.1351c-4.7689 0.0329-9.2475 2.4206-11.932 6.3626l0.65108-0.85936-13.705 16.347z" fill="#fff"/>
 <g transform="matrix(.96068 0 0 .96068 -.29198 46.749)">
  <path d="m626.93 217.66a105.11 105.11 0 0 1 7.5-39.9 98.36 98.36 0 0 1 53.3-54 108.14 108.14 0 0 1 79.9 0 96.77 96.77 0 0 1 53.1 54 105.11 105.11 0 0 1 7.5 39.9 107.5 107.5 0 0 1-7.3 40.2 95.82 95.82 0 0 1-52.9 54 105 105 0 0 1-40.6 7.7 106.81 106.81 0 0 1-41.1-7.7 94.75 94.75 0 0 1-52.7-54.1 118.47 118.47 0 0 1-6.7-40.1zm46.3 0a68.52 68.52 0 0 0 6.8 30.4 53 53 0 0 0 76.3 21.8 56.47 56.47 0 0 0 19.3-21.8 69.74 69.74 0 0 0 0-60.8 53.17 53.17 0 0 0-76.3-21.6 56.47 56.47 0 0 0-19.3 21.8 66.79 66.79 0 0 0-6.8 30.2z"/>
  <path d="m849.83 119.56h71.5a82.48 82.48 0 0 1 34 6.6 54.76 54.76 0 0 1 24.3 20.2c6.1 9.1 9.1 20.2 9.1 33.8a60.83 60.83 0 0 1-9.1 34.3 56.32 56.32 0 0 1-24.3 21.3 76.84 76.84 0 0 1-34 7.3h-27v73.1h-44.5zm44.5 88.3h14.5a50.65 50.65 0 0 0 16.3-2.7 24.49 24.49 0 0 0 11.6-8.6 25.23 25.23 0 0 0 4.3-15.7 26.33 26.33 0 0 0-4.3-15.7 23.24 23.24 0 0 0-11.6-8.2 49.61 49.61 0 0 0-16.3-2.5h-14.5z"/>
  <path d="m1046.4 158.66h-47v-39h138.2v39h-46.7v157.5h-44.5z"/>
  <path d="m1158.7 119.56h44.5v196.6h-44.5z"/>
  <path d="m1442.5 119.56v196.6h-44.3v-115.5l2-32.9-7.5 37.7-33.1 95.1h-43.63l-33.1-95.3-7.5-37.7 1.8 32.9v115.54h-44.3v-196.64h62.4l39.7 131.2 2.8 15.7 2.7-15.7 39.5-131.2h62.4v0.2z"/>
  <path d="m1587 119.56h44.5v120.8a87.42 87.42 0 0 1-9.5 42 66.73 66.73 0 0 1-27.2 27.5c-11.8 6.6-25.9 9.8-42.2 9.8s-30.6-3.2-42.7-9.8a67.32 67.32 0 0 1-27.2-27.5 88.59 88.59 0 0 1-9.5-42v-120.8h44.3v118.3a52.74 52.74 0 0 0 4.3 22.7 30.48 30.48 0 0 0 12 13.8 37.63 37.63 0 0 0 18.6 4.8 33.62 33.62 0 0 0 18.4-4.8 32.68 32.68 0 0 0 12-13.8 55.88 55.88 0 0 0 4.3-22.7v-118.3z"/>
  <path d="m1730 116a107.77 107.77 0 0 1 32 4.1 124.65 124.65 0 0 1 22 8.4c3.4 1.8 6.8 3.9 10.2 5.9l-21.3 35.9c-1.6-1.1-4.3-3-8.2-5.2a75.38 75.38 0 0 0-13.6-6.1 49.77 49.77 0 0 0-16.3-2.7 38 38 0 0 0-18.6 4.1 12.72 12.72 0 0 0-7 12 15 15 0 0 0 3.9 10 41.46 41.46 0 0 0 11.6 8.4 215.57 215.57 0 0 0 20 8.6 128.49 128.49 0 0 1 20.7 9.5 77.75 77.75 0 0 1 17 12.9 58.39 58.39 0 0 1 11.8 17.3 53.57 53.57 0 0 1 4.3 22.2 49.78 49.78 0 0 1-22.7 43.8 76.33 76.33 0 0 1-23.8 10.7 104.08 104.08 0 0 1-27.7 3.4 134.29 134.29 0 0 1-62-14.5 118 118 0 0 1-11.8-7l22.2-37.5c2.3 1.6 4.5 3 6.8 4.3a120.17 120.17 0 0 0 12.5 6.1 90.28 90.28 0 0 0 15.9 5.4 65.83 65.83 0 0 0 16.6 2.3c9.1 0 15.9-1.8 20.4-5.2a16.69 16.69 0 0 0 6.8-13.8 18.05 18.05 0 0 0-4.3-11.6 39.61 39.61 0 0 0-12.9-9.5 196.66 196.66 0 0 0-21.6-9.5 144.16 144.16 0 0 1-24.3-12.7 59.84 59.84 0 0 1-18.2-18.6 50.67 50.67 0 0 1-7-27.7 45.61 45.61 0 0 1 9.3-28.6 60.72 60.72 0 0 1 24.7-18.8 90.44 90.44 0 0 1 32.6-6.3z"/>
  <path d="m1945.7 255.56a75.87 75.87 0 0 1-7.5 34.5 53.15 53.15 0 0 1-21.3 22 66.85 66.85 0 0 1-32.9 7.5 70.74 70.74 0 0 1-23.8-3.4 67.5 67.5 0 0 1-16.1-7.5 28.25 28.25 0 0 1-7.3-6.1l16.6-38.6a37.18 37.18 0 0 0 5 5.4 43 43 0 0 0 7.9 5.2 26.63 26.63 0 0 0 22.9-0.7 19.42 19.42 0 0 0 8.6-9.3 41 41 0 0 0 3.2-17.5v-127.3h44.7z"/>
  <path d="m1970.9 119.36h80.07a64.69 64.69 0 0 1 30.4 7 51.32 51.32 0 0 1 21.1 20.7 61.17 61.17 0 0 1 7.7 32.2c0 12.5-2.3 22.5-6.6 30.4a47.33 47.33 0 0 1-15.9 17.7 42.94 42.94 0 0 1-17 7l47.7 81.5h-49.9l-42.7-78.1h-10.7v78.1h-44.5v-196.6h0.3zm44.4 87.6h19.67a36.69 36.69 0 0 0 20.9-5.9c5.9-3.9 8.9-10.7 8.9-20.7 0-9.8-3-16.6-8.9-20.4a36.77 36.77 0 0 0-20.7-5.7h-20l0.1 52.7z"/>
 </g>
</svg>
