<?xml version="1.0" encoding="UTF-8"?>
<svg id="SVGRoot" width="64px" height="64px" version="1.1" viewBox="0 0 64 64" xml:space="preserve" xmlns="http://www.w3.org/2000/svg"><g><circle cx="32" cy="32" r="32" fill="#136041" stop-color="#000000" stroke-linecap="round" stroke-linejoin="round" stroke-miterlimit="168.2" stroke-width="7.5591" style="paint-order:markers stroke fill"/><path d="m51.648 20.71 4.3299-4.3299-8.358-8.358-4.3299 4.3302c-1.6713-0.96231-3.4752-1.719-5.3802-2.2322v-6.1199h-11.82v6.1199c-1.9048 0.51323-3.7087 1.2696-5.3798 2.2322l-4.3302-4.3302-4.1791 4.179-4.1788 4.179 4.3299 4.3299c-0.9625 1.6713-1.7188 3.4752-2.2321 5.3805h-6.1199v11.819h6.1199c0.51326 1.9051 1.2698 3.7091 2.2321 5.3806l-4.3299 4.3301 4.1788 4.1789 4.1791 4.1787 4.3302-4.33c1.6711 0.9625 3.475 1.7187 5.3798 2.2319v6.1201h11.82v-6.1201c1.905-0.51318 3.7089-1.2694 5.3802-2.2319l4.3299 4.33 8.358-8.3576-4.3299-4.3301c0.96231-1.6715 1.7187-3.4755 2.2317-5.3806h6.1201v-11.819h-6.1201c-0.513-1.9053-1.2694-3.7092-2.2317-5.3805zm-9.0406 13.54c-0.28115 1.3255-0.80546 2.5616-1.5232 3.6603-0.41346 0.63324-0.88825 1.222-1.4204 1.7545-0.53257 0.5318-1.121 1.0067-1.7541 1.4202-1.0991 0.71742-2.3353 1.2419-3.6606 1.523-0.72598 0.15376-1.4779 0.23621-2.2494 0.23621-0.77103 0-1.5232-0.08246-2.2494-0.23621-1.3255-0.28101-2.5613-0.80554-3.6607-1.523-0.63286-0.41351-1.2214-0.88844-1.7537-1.4202-0.53234-0.53253-1.0075-1.1213-1.4204-1.7545-0.7177-1.0987-1.2422-2.3347-1.523-3.6598-0.15395-0.72645-0.23624-1.4786-0.23624-2.2499 0-0.77126 0.08228-1.5234 0.23624-2.2496 0.28072-1.3255 0.80516-2.561 1.523-3.6601 0.41294-0.63305 0.8879-1.222 1.4203-1.7543 0.53217-0.53234 1.121-1.0074 1.7538-1.4204 1.0993-0.71773 2.3349-1.242 3.6607-1.5227 0.72622-0.15402 1.4784-0.23657 2.2494-0.23657 0.7715 0 1.5234 0.08255 2.2499 0.23657 1.3248 0.28067 2.561 0.80546 3.6601 1.5227 0.63305 0.41299 1.2215 0.88802 1.7541 1.4204 0.53211 0.53258 1.0069 1.1213 1.4204 1.7543 0.71772 1.0991 1.242 2.3348 1.5232 3.6601 0.15355 0.72622 0.23586 1.4784 0.23586 2.2496 0 0.77126-0.08231 1.5234-0.23586 2.2494z" fill="#fff"/><circle cx="32" cy="32" r="15" fill="#136041" stop-color="#000000" stroke-linecap="round" stroke-linejoin="round" stroke-miterlimit="168.2" stroke-width="15.389" style="paint-order:markers stroke fill"/><path d="m25.213 22.416c-0.43854 9e-3 -0.89099 0.23831-1.2676 0.69726-0.50994 0.62145-0.85886 1.5041-1.8477 4.6758l-0.80327 2.2596h-2.115l-4.156-6e-5 -0.0014 2.822 4.4509 1.3e-4s2.6618 0.0362 3.0506-0.12627c0.67081-0.28028 1.2259-1.2873 1.8516-3.1234 0.54249-1.5921 0.53145-1.6156 0.90235 1.8789 0.86844 8.1822 1.4878 10.084 3.291 10.084 1.456 0 2.228-1.8691 3.5644-8.6309 0.28061-1.4198 0.53772-2.608 0.57032-2.6406 0.10077-0.10097 0.21236 0.60078 0.5625 3.5273 0.54984 4.5957 0.87586 5.6474 1.8438 5.9668 0.46114 0.15219 0.65936 0.13913 1.1172-0.0781 0.78873-0.37428 1.3023-1.2368 2.543-4.2754l1.0863-2.5825h9.1212l-2e-3 -2.822h-8.3265s-1.929-0.14651-2.3623 0.283c-0.80534 0.79817-1.0788 1.6731-1.6334 3.1059-0.20611 0.53243-0.42094 1.0229-0.47852 1.0898-0.0576 0.067-0.19734-0.73229-0.31054-1.7754-0.63907-5.888-1.3692-7.7506-2.9941-7.7852-2.228-0.0474-2.6765 3.4076-3.6445 8.6309-0.41222 2.2242-0.55703 2.6188-0.70312 1.9238-0.0544-0.25892-0.32133-2.3588-0.59375-4.666-0.61313-5.1926-0.83928-6.5133-1.2734-7.4102-0.33434-0.69066-0.87757-1.0412-1.4414-1.0293z" fill="#fff" stop-color="#000000" stroke-linecap="round" stroke-linejoin="round" stroke-miterlimit="168.2" stroke-width="33.692" style="paint-order:markers stroke fill"/></g></svg>
