<?xml version="1.0" standalone="no"?>
<!DOCTYPE svg PUBLIC "-//W3C//DTD SVG 20010904//EN"
 "http://www.w3.org/TR/2001/REC-SVG-20010904/DTD/svg10.dtd">
<svg version="1.0" xmlns="http://www.w3.org/2000/svg"
 width="700.000000pt" height="700.000000pt" viewBox="0 0 700.000000 700.000000"
 preserveAspectRatio="xMidYMid meet">
<metadata>
Created by potrace 1.14, written by Peter Selinger 2001-2017
</metadata>
<g transform="translate(0.000000,700.000000) scale(0.100000,-0.100000)"
fill="#000000" stroke="none">
<path d="M2883 6922 c-6 -4 -24 -36 -41 -72 -17 -36 -75 -163 -131 -283 -56
-121 -101 -220 -101 -222 0 -1 -22 -49 -48 -105 l-49 -101 -94 -38 c-91 -37
-276 -127 -351 -172 l-37 -22 -228 66 c-125 36 -299 86 -385 111 -86 25 -165
46 -175 46 -10 0 -40 -27 -68 -63 -28 -35 -69 -86 -92 -113 -23 -27 -101 -121
-173 -209 -73 -88 -149 -180 -170 -205 -21 -25 -106 -127 -188 -226 l-150
-181 195 -384 c125 -246 193 -390 190 -404 -3 -11 -21 -78 -40 -150 -34 -126
-50 -202 -63 -295 -8 -59 -13 -66 -67 -104 -25 -17 -174 -122 -331 -234 -247
-176 -285 -207 -281 -225 3 -12 23 -110 45 -217 22 -107 49 -237 60 -287 11
-51 29 -136 40 -188 32 -153 58 -273 81 -380 11 -55 23 -116 26 -135 3 -19 9
-39 13 -44 8 -7 75 -21 259 -52 18 -3 43 -8 55 -10 11 -2 48 -9 81 -14 33 -6
71 -12 85 -15 14 -2 68 -11 120 -20 52 -9 106 -18 119 -20 13 -2 43 -7 65 -10
38 -6 46 -13 86 -73 92 -136 194 -265 278 -350 l33 -33 -5 -102 c-3 -56 -8
-151 -11 -212 -3 -60 -8 -137 -10 -170 -2 -33 -7 -124 -11 -202 l-6 -142 582
-291 c319 -159 583 -290 585 -290 2 0 10 6 17 13 7 7 110 93 228 192 118 98
259 217 313 263 l99 85 56 -3 c110 -5 358 -4 423 2 73 7 53 18 184 -101 22
-20 76 -68 120 -106 44 -39 82 -72 85 -75 3 -3 45 -41 95 -85 49 -44 107 -95
127 -114 73 -66 67 -66 160 -22 46 21 108 50 138 64 30 14 100 46 155 72 55
26 127 60 160 75 33 15 110 51 170 80 61 28 192 90 291 137 l181 85 -2 76 c-3
67 -10 331 -20 682 l-3 106 42 45 c78 87 101 114 118 140 9 14 23 33 30 40 24
27 74 94 108 146 27 43 40 54 69 59 20 4 45 8 56 11 11 2 36 6 55 9 19 2 67
11 105 19 39 8 88 16 110 19 22 3 65 10 95 16 30 6 70 13 89 16 18 3 43 8 55
10 11 2 65 12 118 21 105 17 97 10 112 88 3 11 14 58 26 105 11 47 23 94 25
105 3 11 28 117 56 235 28 118 64 269 79 335 16 66 45 188 64 270 34 141 35
151 18 162 -150 106 -676 512 -678 525 -10 72 -14 99 -24 143 -7 28 -14 63
-17 79 -2 15 -21 86 -42 157 l-38 128 159 293 c87 161 175 325 195 364 l36 72
-154 195 c-85 107 -190 241 -234 298 -44 56 -85 107 -90 113 -6 6 -22 27 -35
46 -13 19 -33 44 -43 55 -10 11 -43 53 -75 95 -31 41 -59 77 -62 80 -4 3 -19
23 -36 45 -16 22 -40 52 -54 67 l-25 27 -55 -15 c-68 -19 -390 -103 -410 -108
-8 -2 -93 -25 -189 -50 l-173 -46 -92 47 c-149 76 -203 101 -295 137 l-54 22
-78 204 c-43 113 -109 286 -146 385 -36 99 -70 184 -73 188 -4 4 -296 10 -650
13 -354 3 -647 7 -650 9 -3 2 -11 1 -17 -3z m812 -1796 c430 -49 827 -266
1090 -596 33 -41 62 -77 65 -80 3 -3 24 -34 46 -70 97 -153 184 -365 218 -530
28 -139 28 -140 9 -141 -25 -2 -201 -6 -532 -13 -156 -3 -301 -11 -321 -16
-59 -16 -99 -49 -184 -150 -43 -52 -90 -109 -105 -125 -14 -17 -38 -45 -54
-63 -18 -22 -29 -29 -32 -20 -2 7 -27 114 -55 238 -28 124 -53 236 -57 250 -3
14 -8 33 -9 42 -2 9 -15 65 -29 123 -13 58 -27 116 -29 128 -2 12 -21 94 -41
182 -43 183 -43 185 -44 204 -1 9 -4 11 -10 5 -7 -7 -117 -203 -289 -514 -13
-25 -74 -135 -135 -245 -147 -266 -129 -245 -168 -205 -65 65 -135 109 -212
134 -43 14 -81 25 -85 25 -4 -1 -192 -1 -419 0 l-411 1 4 33 c3 17 9 55 15 82
6 28 13 63 16 80 19 114 121 352 208 490 97 153 264 333 406 437 177 130 437
251 604 281 62 12 90 18 103 22 7 3 54 8 105 11 51 4 93 7 94 8 5 4 182 -2
238 -8z m-200 -1767 c9 -41 18 -82 20 -92 2 -10 6 -26 9 -35 3 -9 7 -28 10
-42 17 -89 159 -696 164 -702 4 -4 99 104 212 239 113 135 210 251 215 257 6
6 56 65 110 131 55 66 105 126 112 132 6 7 20 24 31 38 l20 26 269 5 c147 4
313 7 368 8 l100 1 -3 -30 c-9 -96 -36 -206 -83 -340 -183 -532 -653 -942
-1208 -1055 -53 -11 -126 -22 -162 -26 -71 -7 -292 -7 -325 0 -12 2 -45 7 -75
11 -97 12 -242 52 -374 105 -261 104 -514 299 -687 532 -74 99 -89 124 -157
263 -78 157 -138 349 -155 497 l-3 29 402 -3 402 -3 69 -60 c38 -33 82 -72 99
-87 16 -14 39 -35 51 -45 85 -73 153 -133 188 -165 23 -21 46 -38 51 -38 6 0
50 73 100 163 180 328 204 371 211 365 2 -2 11 -38 19 -79z"/>
</g>
</svg>
