<?xml version="1.0" encoding="UTF-8"?> <svg width="512" height="512" version="1.1" viewBox="0 0 512 512" xml:space="preserve" xmlns="http://www.w3.org/2000/svg"><path d="m201.97 0.002368v55.946c-17.415 4.6923-33.899 11.611-49.178 20.411l-39.607-39.589-76.41 76.428 39.589 39.589c-8.7999 15.28-15.718 31.759-20.411 49.178h-55.944v37.268h-0.0066959v23.469h0.0066959v47.332h55.944c4.6926 17.418 11.613 33.914 20.411 49.196l-39.589 39.591 76.41 76.408 39.607-39.589c15.279 8.7999 31.763 15.7 49.178 20.393v55.964h108.07v-55.964c17.417-4.6918 33.898-11.593 49.178-20.393l39.589 39.589 76.428-76.408-39.589-39.591c8.7982-15.282 15.702-31.778 20.393-49.196h55.966v-108.07h-55.966c-4.6902-17.419-11.594-33.898-20.393-49.178l39.589-39.589-76.428-76.428-39.589 39.589c-15.28-8.7982-31.761-15.719-49.178-20.411v-55.946zm54.035 118.86c69.929 0 127.51 52.377 135.96 120.02-34.073 0.057-70.983 0.12054-72.807 0.12054-10.115 0-13.089 7.6078-22.931 32.814-1.1066 2.8202-2.4752 6.3253-3.9419 9.9865-0.56731-4.471-1.1104-8.9932-1.596-13.085-6.2262-52.225-9.7234-75.314-27.283-75.314-15.74 0-20.141 18.134-30.542 70.573-1.901 9.5828-4.2717 21.517-6.6852 31.937-2.5033-15.862-4.8421-35.899-6.5356-50.372-6.9896-59.902-8.6526-74.133-23.426-74.133-13.398 0-18.026 15.588-25.696 41.408-2.394 8.0616-6.1541 20.728-8.8727 26.419h-41.656c8.2846-67.815 65.962-120.37 136.01-120.37zm-63.107 101.05c1.2204 9.3565 2.407 19.502 3.4397 28.346 8.3664 71.669 11.528 92.332 28.373 92.334 16.229-4e-3 21.002-20.803 31.172-72.053 1.9246-9.7085 4.3428-21.897 6.7834-32.337 1.9247 11.841 3.5822 25.752 4.7165 35.292 4.8228 40.384 6.4435 53.988 20.424 53.988 12.166 0 17.74-13.03 30.277-45.136 2.3001-5.8754 5.2088-13.331 7.27-17.888 12.006-0.0184 36.973-0.0626 67.473-0.11384-3.3386 72.774-63.222 130.8-136.82 130.8-73.479 0-133.29-57.834-136.8-130.44h47.075c13.843 0 18.698-16.095 26.623-42.788z" fill="#fff"/></svg>