<?xml version="1.0" encoding="UTF-8"?>
<svg version="1.1" viewBox="0 0 1080 1080" xmlns="http://www.w3.org/2000/svg">
  <path
    transform="matrix(2.1095 0 0 -2.1095 .013358 1066.4)"
    fill="#136041"
    d="m210.5 499.09-9.5754-20.945-90.834-43.945-21.285 6.0811-59.23-71.987 10.527-20.64-22.013-98.305-18.101-12.935 19.521-91.178 22.836-4.6071 63.238-78.22-1.099-22.326 83.616-39.811 18.614 15.207 99.669-0.59348 16.94-14.887 4.1562 1.9573 80.154 37.758-0.7157 23.213 61.963 79.548 21.78 3.9433 21.299 90.74-18.484 13.77-23.879 98.087 10.436 19.52-57.899 73.096-21.845-5.8006-87.045 42.247-7.9023 21.011h-94.842z"
  />
  <path
    d="m464.38 143.25-41.951 91.119c-19.606 7.1455-38.458 16.168-56.324 26.947l-92.406-26.873-96.74 116.82 45.514 89.719c-6.568 19.794-11.208 40.158-13.871 60.842l-78.418 55.701 31.268 148.82 96.24 16.48c5.7848 8.7902 12.465 18.731 18.656 26.611 6.9631 8.9792 14.543 17.446 22.48 25.572l-5.0234 96.127 135.68 67.719 77.029-64.773c20.796 1.915 41.712 1.8018 62.486-0.33399l72.109 64.002 8.8008-4.123 128.59-60.221-2.8418-100.64c14.458-15.112 27.395-31.584 38.662-49.203l94.594-16.818 35.066-147.52-80.527-60.396c-2.8904-20.72-7.7661-41.101-14.557-60.889l45.654-84.531-93.629-119.25-97.416 25.672c-16.176-9.4679-33.11-17.519-50.652-24.119l-34.658-91.248-153.81-1.2109zm74.84 207.65a190.07 190.07 0 0 1 188.46 166.1l-93.057 1.8125c-9.7867 0.0677-18.978 4.9708-24.486 13.061l1.3359-1.7637-28.125 33.547-31.855-139.53-64.996 117.15-16.15-14.096-2.3359-1.2148c-8.8336-4.6053-18.636-7.0589-28.598-7.1523h-0.10352-87.977a190.07 190.07 0 0 1 187.88-167.92zm-5.1426 195.94 25.939 113.61 81.711-97.465 85.555-1.668a190.07 190.07 0 0 1-188.06 169.71 190.07 190.07 0 0 1-187.88-167.92h87.664c2.5137 0.02359 4.9158 0.81199 7.2148 1.8047l52.439 45.766 35.422-63.844z"
    fill="#fff"
  />
</svg>
