<?xml version="1.0" encoding="UTF-8"?>
<svg id="SVGRoot" width="64px" height="64px" version="1.1" viewBox="0 0 64 64" xml:space="preserve" xmlns="http://www.w3.org/2000/svg"><g fill="#fff"><path d="m24.243 21.047c-0.50119 0.01032-1.0183 0.27236-1.4487 0.79687-0.58279 0.71023-0.98155 1.719-2.1117 5.3438l-0.91802 2.5824h-2.4171l-4.7497-6.8e-5 -0.0016 3.2251 5.0867 1.49e-4s3.0421 0.04137 3.4864-0.14431c0.76664-0.32032 1.401-1.4712 2.1161-3.5696 0.61999-1.8195 0.60737-1.8464 1.0313 2.1473 0.9925 9.3511 1.7003 11.525 3.7611 11.525 1.664 0 2.5463-2.1361 4.0736-9.8639 0.3207-1.6226 0.61454-2.9806 0.65179-3.0178 0.11516-0.11539 0.2427 0.6866 0.64286 4.0312 0.62839 5.2522 1.001 6.4542 2.1072 6.8192 0.52702 0.17393 0.75355 0.15901 1.2768-0.08925 0.9014-0.42775 1.4883-1.4135 2.9063-4.8862l1.2415-2.9514h10.424l-0.0022-3.2251h-9.516s-2.2046-0.16744-2.6998 0.32343c-0.92039 0.91219-1.2329 1.9121-1.8667 3.5496-0.23555 0.60849-0.48107 1.169-0.54688 1.2455-0.06583 0.07657-0.22553-0.8369-0.3549-2.029-0.73036-6.7291-1.5648-8.8578-3.4218-8.8974-2.5463-0.05417-3.0589 3.8944-4.1651 9.8639-0.47111 2.5419-0.6366 2.9929-0.80357 2.1986-0.06217-0.29591-0.36723-2.6958-0.67857-5.3326-0.70072-5.9344-0.95918-7.4438-1.4553-8.4688-0.3821-0.78933-1.0029-1.1899-1.6473-1.1763z" stop-color="#000000" stroke-linecap="round" stroke-linejoin="round" stroke-miterlimit="168.2" stroke-width="38.505" style="paint-order:markers stroke fill"/><path d="m25.246 0v6.9933c-2.1769 0.58655-4.2375 1.4512-6.1473 2.5513l-4.9509-4.9487-4.7746 4.7768-4.7768 4.7768 4.9487 4.9487c-1.1 1.9101-1.9647 3.9698-2.5513 6.1473h-6.9933v13.509h6.9933c0.58658 2.1773 1.4516 4.2393 2.5513 6.1496l-4.9487 4.9487 4.7768 4.7746 4.7746 4.7768 4.9509-4.9487c1.9098 1.1 3.9704 1.9626 6.1473 2.5491v6.9955h13.509v-6.9955c2.1771-0.58649 4.2373-1.4491 6.1473-2.5491l4.9487 4.9487 9.5536-9.5513-4.9487-4.9487c1.0998-1.9103 1.9628-3.9723 2.5491-6.1496h6.9955v-13.509h-6.9955c-0.58628-2.1775-1.4493-4.2373-2.5491-6.1473l4.9487-4.9487-9.5536-9.5536-4.9487 4.9487c-1.9101-1.0998-3.9702-1.9648-6.1473-2.5513v-6.9933zm6.7545 14.857a17.143 17.143 0 0 1 17.143 17.143 17.143 17.143 0 0 1-17.143 17.143 17.143 17.143 0 0 1-17.143-17.143 17.143 17.143 0 0 1 17.143-17.143z" stroke-width="1.1429"/></g></svg>
