<?xml version="1.0" encoding="UTF-8"?> <svg width="689.57" height="426.34" version="1.1" viewBox="0 0 689.57 426.34" xml:space="preserve" xmlns="http://www.w3.org/2000/svg"><g fill="#2f2f2f"><path d="m139.26 415.44q2.3527 0 4.0742-0.65034 1.7406-0.65035 2.4675-1.2624l1.4346 2.8118q-0.86074 0.76513-3.0031 1.5493-2.1232 0.78427-5.1071 0.78427-2.7927 0-5.1836-0.99467t-4.189-2.7736q-1.7789-1.7789-2.7927-4.1507-0.99467-2.3719-0.99467-5.1262 0-2.7544 0.99467-5.1454t2.7735-4.1699q1.798-1.798 4.189-2.7927 2.4101-1.0137 5.2028-1.0137 2.984 0 5.1071 0.78427 2.1423 0.78427 3.0031 1.5493l-1.4346 2.8118q-0.72688-0.63122-2.4675-1.2624-1.7215-0.65034-4.0742-0.65034-2.1423 0-3.9212 0.72687t-3.0987 2.0658q-1.3007 1.3198-2.0275 3.1178-0.70774 1.798-0.70774 3.9212 0 2.1423 0.70774 3.9594 0.72687 1.798 2.0275 3.137 1.3198 1.3198 3.0987 2.0467 1.7789 0.72687 3.9212 0.72687z"/><path d="m153.3 405.57q0 2.8118 1.1668 5.0688 1.1859 2.2571 3.2518 3.596 2.0658 1.3198 4.7437 1.3198 2.697 0 4.7437-1.3198 2.0658-1.3389 3.2326-3.596t1.1668-5.0688-1.1668-5.0498q-1.1668-2.2571-3.2326-3.5769-2.0467-1.3198-4.7437-1.3198-2.6779 0-4.7437 1.3198t-3.2518 3.5769q-1.1668 2.2379-1.1668 5.0498zm-3.3856 0q0-2.7544 0.93727-5.1262 0.95641-2.391 2.6588-4.1699 1.7023-1.7789 3.9786-2.7736 2.2953-0.99467 4.9732-0.99467 2.697 0 4.9732 0.99467 2.2953 0.99468 3.9786 2.7736 1.7023 1.7789 2.6396 4.1699 0.93727 2.3718 0.93727 5.1262 0 2.7736-0.93727 5.1645-0.91814 2.3719-2.6205 4.1699-1.6832 1.7789-3.9594 2.7736t-5.0115 0.99467q-2.7353 0-5.0498-0.99467-2.2954-0.99467-3.9786-2.7736-1.6832-1.798-2.6013-4.1699-0.91814-2.391-0.91814-5.1645z"/><path d="m181.87 396.06 0.21041 0.0383v22.111h-3.2708v-25.249h4.6098l13.103 22.093-0.21041 0.0383v-22.131h3.2708v25.249h-4.648z"/><path d="m209.95 395.93h-6.8094v-2.9648h16.909v2.9648h-6.8094v22.284h-3.29z"/><path d="m223.65 392.96h8.818q2.0467 0 3.7108 0.86074 1.6832 0.84161 2.6779 2.4866 1.0137 1.6259 1.0137 3.9786 0 2.3336-0.93727 3.8638-0.91814 1.5302-2.2188 2.3145-1.3007 0.76514-2.4101 0.84161l6.2548 10.903h-3.7108l-5.8531-10.673h-4.0742v10.673h-3.2708zm3.2708 12.146h4.3994q2.2571 0 3.7299-1.1285t1.4728-3.6152q0-2.4866-1.4728-3.5769-1.4537-1.0903-3.7108-1.0903h-4.4185z"/><path d="m246.39 405.57q0 2.8118 1.1668 5.0688 1.1859 2.2571 3.2518 3.596 2.0658 1.3198 4.7437 1.3198 2.697 0 4.7437-1.3198 2.0658-1.3389 3.2326-3.596t1.1668-5.0688-1.1668-5.0498q-1.1668-2.2571-3.2326-3.5769-2.0467-1.3198-4.7437-1.3198-2.6779 0-4.7437 1.3198t-3.2518 3.5769q-1.1668 2.2379-1.1668 5.0498zm-3.3856 0q0-2.7544 0.93727-5.1262 0.9564-2.391 2.6588-4.1699 1.7023-1.7789 3.9786-2.7736 2.2953-0.99467 4.9732-0.99467 2.697 0 4.9732 0.99467 2.2953 0.99468 3.9786 2.7736 1.7024 1.7789 2.6396 4.1699 0.93727 2.3718 0.93727 5.1262 0 2.7736-0.93727 5.1645-0.91814 2.3719-2.6205 4.1699-1.6832 1.7789-3.9594 2.7736-2.2762 0.99467-5.0115 0.99467t-5.0498-0.99467q-2.2954-0.99467-3.9786-2.7736-1.6832-1.798-2.6013-4.1699-0.91814-2.391-0.91814-5.1645z"/><path d="m271.89 392.96h3.2708v22.284h9.9274v2.9648h-13.198z"/><path d="m289.45 392.96h14.919v2.9648h-11.687v8.1867h11.457v2.8883h-11.457v8.244h11.687v2.9648h-14.919z"/><path d="m319.1 392.96h14.919v2.9648h-11.687v8.1867h11.457v2.8883h-11.457v8.244h11.687v2.9648h-14.919z"/><path d="m356.38 392.96h3.4048l9.334 25.249h-3.5004l-2.1806-6.0826h-10.711l-2.2188 6.0826h-3.5004zm-2.6014 16.22h8.6267l-4.2846-12.203h-0.0574z"/><path d="m387.61 392.96h3.2708v15.685q0 3.1178-1.2433 5.3749-1.2433 2.238-3.4239 3.443-2.1614 1.2051-4.9541 1.2051t-4.9924-1.2051q-2.1805-1.2051-3.4239-3.443-1.2433-2.2571-1.2433-5.3749v-15.685h3.2518v15.513q0 2.1997 0.8416 3.8064 0.84161 1.6067 2.2954 2.4866 1.4537 0.86074 3.2708 0.86074t3.2518-0.86074q1.4346-0.87987 2.2571-2.4866 0.8416-1.6067 0.8416-3.8064z"/><path d="m400.83 395.93h-6.8094v-2.9648h16.909v2.9648h-6.8094v22.284h-3.29z"/><path d="m415.69 405.57q0 2.8118 1.1668 5.0688 1.1859 2.2571 3.2518 3.596 2.0658 1.3198 4.7437 1.3198 2.697 0 4.7437-1.3198 2.0658-1.3389 3.2326-3.596t1.1668-5.0688-1.1668-5.0498q-1.1668-2.2571-3.2326-3.5769-2.0467-1.3198-4.7437-1.3198-2.6779 0-4.7437 1.3198t-3.2518 3.5769q-1.1668 2.2379-1.1668 5.0498zm-3.3856 0q0-2.7544 0.93728-5.1262 0.9564-2.391 2.6587-4.1699t3.9786-2.7736q2.2953-0.99467 4.9732-0.99467 2.697 0 4.9732 0.99467 2.2953 0.99468 3.9786 2.7736 1.7024 1.7789 2.6396 4.1699 0.93727 2.3718 0.93727 5.1262 0 2.7736-0.93727 5.1645-0.91814 2.3719-2.6205 4.1699-1.6832 1.7789-3.9594 2.7736t-5.0115 0.99467-5.0498-0.99467q-2.2953-0.99467-3.9786-2.7736-1.6832-1.798-2.6014-4.1699-0.91814-2.391-0.91814-5.1645z"/><path d="m464.05 392.96v25.249h-3.2518v-18.229l0.17214-2.7927-0.6886 3.0796-6.0826 16.507h-3.2326l-6.0826-16.507-0.66947-3.0796 0.15302 2.7927v18.229h-3.2708v-25.249h4.3612l6.886 19.816 0.22953 1.2815 0.24866-1.2815 6.9054-19.816z"/><path d="m477.05 392.96h3.4048l9.334 25.249h-3.5004l-2.1806-6.0826h-10.711l-2.2188 6.0826h-3.5004zm-2.6014 16.22h8.6267l-4.2846-12.203h-0.0574z"/><path d="m504.77 415.44q2.3527 0 4.0742-0.65034 1.7406-0.65035 2.4675-1.2624l1.4346 2.8118q-0.86073 0.76513-3.0031 1.5493-2.1232 0.78427-5.1071 0.78427-2.7927 0-5.1836-0.99467t-4.189-2.7736q-1.7789-1.7789-2.7927-4.1507-0.99467-2.3719-0.99467-5.1262 0-2.7544 0.99467-5.1454t2.7736-4.1699q1.798-1.798 4.189-2.7927 2.4101-1.0137 5.2028-1.0137 2.984 0 5.1071 0.78427 2.1423 0.78427 3.0031 1.5493l-1.4346 2.8118q-0.72687-0.63122-2.4675-1.2624-1.7215-0.65034-4.0742-0.65034-2.1423 0-3.9212 0.72687t-3.0987 2.0658q-1.3007 1.3198-2.0275 3.1178-0.70774 1.798-0.70774 3.9212 0 2.1423 0.70774 3.9594 0.72687 1.798 2.0275 3.137 1.3198 1.3198 3.0987 2.0467 1.7789 0.72687 3.9212 0.72687zm-0.0765 10.903q-1.3963 0-2.5058-0.43994-1.0903-0.42081-1.5685-0.82247l1.3198-1.5493q0.36342 0.32517 1.052 0.65034 0.70774 0.3443 1.4919 0.3443 0.91814 0 1.5302-0.42081 0.63122-0.40169 0.63122-1.0711 0-0.72687-0.53558-1.0711-0.51645-0.3443-1.3198-0.3443-0.59295 0-1.0711 0.0765-0.47819 0.0956-0.6886 0.19129l-0.55471-0.32518 1.4728-4.1507 1.4919 0.61209-0.87987 2.4484q0.91814-0.19128 1.9319-0.0191 1.0137 0.19128 1.7215 0.78428 0.70774 0.61209 0.70774 1.6641 0 1.1285-0.63122 1.8937-0.61209 0.76514-1.5876 1.1477-0.9564 0.40168-2.0084 0.40168z"/><path d="m524.32 392.96h3.4048l9.334 25.249h-3.5004l-2.1805-6.0826h-10.711l-2.2188 6.0826h-3.5004zm-2.6014 16.22h8.6267l-4.2846-12.203h-0.0574zm-2.0658-17.98q0.19129-0.87988 0.65035-1.798 0.47819-0.91814 1.2242-1.5493 0.76514-0.65035 1.7789-0.65035 1.1668 0 1.9701 0.36343 0.80334 0.36343 1.5111 0.72687 0.70773 0.36342 1.5685 0.36342 0.66947 0 1.0711-0.49731 0.40168-0.49733 0.51645-0.95641h2.4101q-0.19128 0.84161-0.68861 1.7789-0.47818 0.91814-1.2433 1.5685-0.746 0.65035-1.7597 0.65035-1.1668 0-1.9893-0.36343t-1.5111-0.72687q-0.6886-0.36343-1.4537-0.36343-0.63122 0-1.0711 0.49733-0.42082 0.47819-0.57384 0.9564z"/><path d="m541.91 405.57q0 2.8118 1.1668 5.0688 1.1859 2.2571 3.2518 3.596 2.0658 1.3198 4.7437 1.3198 2.697 0 4.7437-1.3198 2.0658-1.3389 3.2326-3.596t1.1668-5.0688-1.1668-5.0498q-1.1668-2.2571-3.2326-3.5769-2.0467-1.3198-4.7437-1.3198-2.6779 0-4.7437 1.3198t-3.2518 3.5769q-1.1668 2.2379-1.1668 5.0498zm-3.3856 0q0-2.7544 0.93727-5.1262 0.9564-2.391 2.6587-4.1699 1.7024-1.7789 3.9786-2.7736 2.2953-0.99467 4.9732-0.99467 2.697 0 4.9732 0.99467 2.2953 0.99468 3.9786 2.7736 1.7023 1.7789 2.6396 4.1699 0.93727 2.3718 0.93727 5.1262 0 2.7736-0.93727 5.1645-0.91814 2.3719-2.6205 4.1699-1.6832 1.7789-3.9594 2.7736t-5.0115 0.99467-5.0498-0.99467q-2.2953-0.99467-3.9786-2.7736-1.6832-1.798-2.6014-4.1699-0.91813-2.391-0.91813-5.1645z"/><path d="m23.803 313.93q0 8.6454 3.5195 15.685 3.596 6.9627 9.87 11.094 6.3504 4.1316 14.69 4.1316 8.3394 0 14.613-4.1316 6.3504-4.1316 9.87-11.094 3.596-7.0387 3.596-15.685 0-8.6454-3.596-15.608-3.5195-6.9627-9.87-11.094-6.2738-4.2081-14.613-4.2081-8.3394 0-14.69 4.2081-6.2738 4.1316-9.87 11.094-3.5195 6.9627-3.5195 15.608zm-23.795 0q0-11.017 3.902-20.505 3.902-9.564 10.941-16.679 7.0387-7.1154 16.526-11.094 9.4874-3.9787 20.505-3.9786 11.171 0 20.581 3.9786 9.4874 3.9786 16.449 11.094 7.0387 7.1154 10.865 16.679 3.902 9.4874 3.902 20.505 0 11.094-3.749 20.658-3.749 9.4874-10.711 16.679-6.9627 7.1154-16.449 11.094t-20.887 3.9786q-11.629 0-21.193-3.9786-9.4874-3.9786-16.373-11.094-6.886-7.192-10.635-16.679-3.6725-9.564-3.6725-20.658z"/><path d="m116.91 263.51h36.725q9.7167 0 17.521 3.443 7.804 3.3665 12.395 10.329 4.6672 6.886 4.6672 17.291 0 10.329-4.6672 17.597-4.5906 7.192-12.395 11.017-7.804 3.749-17.521 3.749h-13.848v37.567h-22.877zm22.877 45.371h7.498q4.6672 0 8.3394-1.3772 3.749-1.3772 5.9678-4.3611 2.2188-3.0604 2.2188-8.0334 0-5.0497-2.2188-7.9574-2.2188-2.9839-5.9678-4.2846-3.6725-1.3007-8.3394-1.3007h-7.498z"/><path d="m218.98 283.55h-24.101v-20.045h71v20.045h-24.024v80.947h-22.877z"/><path d="m279.04 263.51h22.877v100.99h-22.877z"/><path d="m427.17 263.51v100.99h-22.8v-59.448l0.99467-16.909-3.902 19.357-16.985 48.89h-22.417l-16.909-48.89-3.8255-19.357 0.99467 16.909v59.448h-22.877v-100.99h32.134l20.351 67.407 1.3772 8.0334 1.3772-8.0334 20.351-67.407z"/><path d="m503.75 263.51h22.877v62.05q0 12.471-4.8967 21.652-4.8967 9.1047-14.001 14.155-9.1047 4.9732-21.729 4.9732-12.701 0-21.882-4.9732-9.1814-5.0497-14.078-14.155-4.8202-9.1814-4.8202-21.652v-62.05h22.8v60.826q0 6.886 2.1423 11.629 2.2188 4.7436 6.2738 7.192 4.055 2.3718 9.564 2.3718 5.4322 0 9.4107-2.3718 3.9786-2.4484 6.1208-7.192 2.2188-4.7436 2.2188-11.629z"/><path d="m579.57 261.67q9.4107 0 16.449 2.0658 7.0387 2.0658 11.323 4.3611 4.2846 2.2953 5.2027 3.0604l-11.017 18.439q-1.2241-0.91814-4.2081-2.6779-2.9074-1.7597-6.9627-3.137-3.9786-1.3772-8.3394-1.3772-5.8913 0-9.564 2.1423-3.596 2.0658-3.596 6.1974 0 2.8309 1.9127 5.1262 1.9893 2.2188 5.9678 4.2846 4.0551 1.9893 10.253 4.3611 5.6618 2.0657 10.635 4.8967 4.9732 2.8309 8.722 6.7327 3.8255 3.8255 6.0443 8.8754 2.2188 5.0497 2.2188 11.477 0 7.6507-3.137 13.313-3.137 5.5852-8.5694 9.258-5.3558 3.6725-12.241 5.4322-6.8094 1.8363-14.155 1.8363-10.405 0-18.669-2.3718-8.1867-2.3718-13.236-5.1262-5.0494-2.7543-6.0443-3.6725l11.4-19.204q0.91814 0.68861 3.5195 2.2188 2.6779 1.5302 6.5034 3.2134 3.8255 1.6067 8.11 2.7544 4.3611 1.1477 8.5694 1.1477 7.0387 0 10.559-2.6779 3.5195-2.7544 3.5195-7.192 0-3.29-2.2188-5.8913-2.2188-2.6014-6.6564-4.8967-4.4376-2.3718-11.094-4.9732-6.6564-2.6779-12.471-6.5034-5.7383-3.8255-9.334-9.564-3.596-5.7383-3.596-14.231t4.7436-14.69q4.8202-6.2738 12.624-9.64 7.8807-3.3665 16.832-3.3665z"/><path d="m643.12 297.25q0 5.257-1.9859 9.034-1.947 3.7383-5.6074 5.7242-3.6214 1.986-8.5667 1.986-3.5825 0-6.2304-0.93454-2.6479-0.89561-4.2056-1.947-1.5576-1.0903-1.908-1.6355l4.3613-10.085q0.46727 0.66198 1.3239 1.4408 0.85667 0.77882 2.1028 1.3629 1.2461 0.54516 2.8037 0.54516 1.7912 0 3.1931-0.73987t2.2196-2.4532q0.85667-1.7133 0.85667-4.556v-33.333h11.643z"/><path d="m650.92 261.67h20.95q4.4782 0 7.9827 1.8692 3.5046 1.8691 5.5295 5.4127 2.0638 3.5046 2.0638 8.372t-1.7523 7.9827q-1.7134 3.0763-4.1277 4.6339-2.4143 1.5187-4.4782 1.8302l12.5 21.3h-13.084l-11.137-20.405h-2.8037v20.405h-11.643zm11.643 22.935h5.1401q3.1152 0 5.4516-1.5187t2.3364-5.3738-2.2975-5.3348q-2.2974-1.5187-5.4126-1.5187h-5.218z"/></g><g><circle cx="344.79" cy="117.75" r="117.75" fill="#136041"/><path d="m323.04 14.719v22.516c-7.0089 1.8885-13.643 4.6727-19.793 8.2144l-15.94-15.933-30.752 30.76 15.933 15.933c-3.5417 6.1497-6.3258 12.782-8.2144 19.793h-22.516v43.495h22.516c1.8886 7.0102 4.6737 13.649 8.2144 19.8l-15.933 15.933 30.752 30.752 15.94-15.933c6.1492 3.5417 12.784 6.3189 19.793 8.2075v22.524h43.495v-22.524c7.0098-1.8883 13.643-4.6658 19.793-8.2075l15.933 15.933 30.76-30.752-15.933-15.933c3.541-6.1506 6.3198-12.79 8.2075-19.8h22.524v-43.495h-22.524c-1.8877-7.0107-4.6663-13.643-8.2075-19.793l15.933-15.933-30.76-30.76-15.933 15.933c-6.1497-3.541-12.783-6.3263-19.793-8.2144v-22.516zm21.747 47.836c30.483 0 55.195 24.712 55.195 55.195 0 30.483-24.712 55.195-55.195 55.195s-55.195-24.712-55.195-55.195c0-30.483 24.712-55.195 55.195-55.195z" fill="#fff"/><path d="m332.2 151.8c-6.7803 0-8.0525-8.3156-11.42-37.162-0.41562-3.5595-0.89265-7.6432-1.3838-11.409-3.1895 10.743-5.1433 17.221-10.715 17.221h-66.92v-9.4457h65.057c1.0942-2.2906 2.607-7.3883 3.5705-10.633 3.0872-10.392 4.9496-16.666 10.342-16.666 5.9459 0 6.6152 5.7274 9.4283 29.836 0.68162 5.8249 1.6232 13.89 2.6307 20.274 0.97134-4.1939 1.9253-8.9973 2.6904-12.854 4.186-21.105 5.9569-28.403 12.292-28.403 7.0673 0 8.4748 9.293 10.981 30.312 0.19544 1.6467 0.41415 3.4666 0.64247 5.2661 0.59031-1.4735 1.1414-2.8841 1.5868-4.0192 3.961-10.145 5.1575-13.207 9.2286-13.207 1.9445 0 77.595-0.12911 77.595-0.12911l0.0152 9.4457s-61.75 0.10543-75.116 0.12595c-0.82959 1.834-2.0008 4.8346-2.9265 7.1993-5.0458 12.922-7.289 18.166-12.185 18.166-5.6267 0-6.2784-5.4754-8.2195-21.729-0.45651-3.8397-1.1241-9.4379-1.8987-14.204-0.98229 4.2018-1.9552 9.1072-2.7298 13.015-4.0931 20.628-6.014 28.999-12.547 28.999" fill="#fff"/></g></svg>