<?xml version="1.0" encoding="UTF-8"?>
<svg id="SVGRoot" width="64px" height="64px" version="1.1" viewBox="0 0 64 64" xml:space="preserve" xmlns="http://www.w3.org/2000/svg"><g fill="#fff"><path d="m25.246 0v6.9933c-2.1769 0.58655-4.2375 1.4512-6.1473 2.5513l-4.9509-4.9487-4.7746 4.7768-4.7768 4.7768 4.9487 4.9487c-1.1 1.9101-1.9647 3.9698-2.5513 6.1473h-6.9933v13.509h6.9933c0.58658 2.1773 1.4516 4.2393 2.5513 6.1496l-4.9487 4.9487 4.7768 4.7746 4.7746 4.7768 4.9509-4.9487c1.9098 1.1 3.9704 1.9626 6.1473 2.5491v6.9955h13.509v-6.9955c2.1771-0.58649 4.2373-1.4491 6.1473-2.5491l4.9487 4.9487 9.5536-9.5513-4.9487-4.9487c1.0998-1.9103 1.9628-3.9723 2.5491-6.1496h6.9955v-13.509h-6.9955c-0.58628-2.1775-1.4493-4.2373-2.5491-6.1473l4.9487-4.9487-9.5536-9.5536-4.9487 4.9487c-1.9101-1.0998-3.9702-1.9648-6.1473-2.5513v-6.9933zm6.7545 14.857a17.143 17.143 0 0 1 17.143 17.143 17.143 17.143 0 0 1-17.143 17.143 17.143 17.143 0 0 1-17.143-17.143 17.143 17.143 0 0 1 17.143-17.143z" stroke-width="1.1429"/></g></svg>
