<?xml version="1.0" encoding="UTF-8"?> <svg width="512" height="512" version="1.1" viewBox="0 0 512 512" xml:space="preserve" xmlns="http://www.w3.org/2000/svg"><circle cx="256" cy="256" r="256" fill="#136041"/><path d="m208.72 32v48.953c-15.238 4.1058-29.662 10.159-43.031 17.859l-34.656-34.641-66.859 66.875 34.641 34.641c-7.7 13.37-13.753 27.789-17.859 43.031h-48.953v94.562h48.953c4.1061 15.241 10.161 29.675 17.859 43.047l-34.641 34.641 66.859 66.859 34.656-34.641c13.369 7.7 27.793 13.738 43.031 17.844v48.969h94.562v-48.969c15.24-4.1054 29.661-10.144 43.031-17.844l34.641 34.641 66.875-66.859-34.641-34.641c7.6985-13.372 13.74-27.806 17.844-43.047h48.969v-94.562h-48.969c-4.104-15.242-10.145-29.661-17.844-43.031l34.641-34.641-66.875-66.875-34.641 34.641c-13.37-7.6985-27.791-13.754-43.031-17.859v-48.953zm47.281 104c66.274 0 120 53.726 120 120s-53.726 120-120 120-120-53.726-120-120 53.726-120 120-120z" fill="#fff"/><path d="m228.62 330.02c-14.741 0-17.507-18.079-24.828-80.793-0.9036-7.7387-1.9407-16.617-3.0086-24.804-6.9344 23.356-11.182 37.441-23.295 37.441h-145.49v-20.536h141.44c2.3788-4.98 5.6678-16.063 7.7626-23.117 6.7118-22.593 10.761-36.233 22.484-36.233 12.927 0 14.382 12.452 20.498 64.867 1.4819 12.664 3.529 30.198 5.7194 44.077 2.1118-9.118 4.1859-19.561 5.8493-27.946 9.1009-45.885 12.951-61.752 26.724-61.752 15.365 0 18.425 20.204 23.873 65.901 0.4249 3.5801 0.9004 7.5368 1.3968 11.449 1.2834-3.2036 2.4816-6.2704 3.4499-8.7381 8.6116-22.056 11.213-28.713 20.064-28.713 4.2275 0 168.7-0.2807 168.7-0.2807l0.033 20.536s-134.25 0.22923-163.31 0.27383c-1.8036 3.9874-4.3499 10.511-6.3625 15.652-10.97 28.093-15.847 39.494-26.492 39.494-12.233 0-13.65-11.904-17.87-47.24-0.9925-8.3479-2.4439-20.519-4.128-30.88-2.1356 9.1351-4.2508 19.8-5.9348 28.295-8.8989 44.848-13.075 63.046-27.279 63.046" fill="#fff"/></svg>