<?xml version="1.0" encoding="UTF-8"?>
<svg
  width="1295"
  height="1080"
  version="1.1"
  viewBox="0 0 1295 1080"
  xmlns="http://www.w3.org/2000/svg"
>
  <g transform="matrix(1.3612 0 0 1.3612 -89.34 -202.39)">
    <polygon
      fill="#136041"
      transform="matrix(1,0,0,-1,285.27,647.77)"
      points="188.41 15.59 322.71 14.79 396.61 49.69 478.71 155.09 497.41 234.79 465.81 364.59 415.01 428.69 299.01 484.99 216.11 485.49 95.81 427.29 43.81 364.19 14.61 233.79 31.71 153.79 115.71 49.89"
    />
    <path
      d="m495.77 148.68-26.279 57.482c-12.971 4.731-25.428 10.747-37.201 17.959l-58.213-16.633-59.23 71.986 28.787 56.443c-4.3029 13.087-7.3424 26.547-9.0801 40.213l-49.293 35.225 19.521 91.178 62.094 12.529c7.5245 11.535 16.186 22.275 25.861 32.076l-2.9805 60.547 83.615 39.811 48.266-39.434c13.776 1.2562 27.633 1.1394 41.387-0.3418l45.57 40.049 4.1562-1.957 80.154-37.758-1.9531-63.312c9.5742-9.9764 18.095-20.9 25.443-32.613l59.537-10.779 21.299-90.74-50.779-37.828c-1.8898-13.678-5.137-27.124-9.6914-40.158l28.543-53.391-57.898-73.096-61.158 16.24c-10.81-6.3561-22.167-11.714-33.943-16.023l-21.691-57.674zm44.33 182.52c11.892-0.0999 23.86 2.8226 34.713 8.8633 24.807 13.807 38.832 41.145 35.58 69.35-3.252 28.205-23.132 51.634-50.43 59.434-27.298 7.7996-56.556-1.5909-74.217-23.82v-2e-3l-2e-3 -2e-3c-24.207-30.431-19.128-74.523 11.365-98.652l-4.3438-5.4883h0.012l4.3457 5.4863c12.519-9.9152 27.686-15.04 42.977-15.168z"
      fill="#136041"
    />
    <path
      d="m505.4 210.14-19.887 43.195c-9.294 3.3873-18.231 7.6634-26.701 12.773l-43.805-12.738-45.859 55.377 21.576 42.531c-3.1135 9.3831-5.3138 19.037-6.5762 28.842l-37.174 26.404 14.822 70.547 45.623 7.8125c2.7423 4.167 5.9087 8.8797 8.8437 12.615 3.3008 4.2566 6.8937 8.271 10.656 12.123l-2.3809 45.568 64.316 32.102 36.516-30.705c9.8584 0.90778 19.773 0.85424 29.621-0.15821l34.184 30.34 4.1719-1.9551 60.957-28.547-1.3477-47.707c6.8538-7.1637 12.987-14.972 18.328-23.324l44.842-7.9726 16.623-69.934-38.174-28.631c-1.3702-9.8223-3.6814-19.483-6.9004-28.863l21.643-40.072-44.385-56.529-46.18 12.17c-7.6684-4.4882-15.696-8.3048-24.012-11.434l-16.43-43.256zm32.82 139.87c1.5304-0.0333 3.0634 3e-3 4.5938 0.10937 7.3456 0.50841 14.634 2.6249 21.326 6.3906 17.846 10.042 27.865 29.792 25.43 50.125-2.4349 20.333-16.833 37.159-36.545 42.703-19.712 5.5443-40.773-1.3081-53.449-17.391v-2e-3h-2e-3c-17.391-22.056-13.586-53.83 8.5215-71.156l-3.1016-3.959 3.1035 3.959c8.8131-6.9096 19.41-10.546 30.123-10.779z"
      fill="#fff"
    />
    <circle transform="scale(1,-1)" cx="540.88" cy="-398.68" r="90.1" fill="#136041" />
    <path
      d="m546.7 343.29-30.811 55.535-7.6562-6.6816-1.1074-0.57617c-4.1876-2.1832-8.8344-3.3463-13.557-3.3906h-44.898v21h44.701c1.1916 0.0112 2.3301 0.38489 3.4199 0.85547l24.859 21.695 16.791-30.266 12.297 53.857 38.734-46.203 48.312-0.94141-0.41016-20.996-51.268 0.99805c-4.6394 0.0321-8.9962 2.3565-11.607 6.1914l0.63281-0.83593-13.332 15.902z"
      fill="#fff"
    />
    <g fill="#2f2f2f">
      <path
        d="m65.9 769.87a67.54 67.54 0 0 1 4.8-25.5 62.24 62.24 0 0 1 34.1-34.4 68.16 68.16 0 0 1 51 0 61.89 61.89 0 0 1 33.9 34.4 67.18 67.18 0 0 1 4.8 25.5 70.25 70.25 0 0 1-4.6 25.6 61 61 0 0 1-33.7 34.6 65.56 65.56 0 0 1-25.9 4.9 68.88 68.88 0 0 1-26.2-4.9 59 59 0 0 1-20.3-13.8 60.72 60.72 0 0 1-13.1-20.7 67 67 0 0 1-4.8-25.7zm29.5 0a42.1 42.1 0 0 0 4.4 19.4 35.35 35.35 0 0 0 12.2 13.8 31.58 31.58 0 0 0 18.2 5.1 33.4 33.4 0 0 0 18.2-5.1 35.35 35.35 0 0 0 12.2-13.8 44.74 44.74 0 0 0 0-38.8 35.35 35.35 0 0 0-12.2-13.79 32.44 32.44 0 0 0-18.2-5.2 32.67 32.67 0 0 0-18.2 5.2 35.35 35.35 0 0 0-12.2 13.8 42.39 42.39 0 0 0-4.4 19.4z"
      />
      <path
        d="m208 707.37h45.5a53.48 53.48 0 0 1 21.7 4.2 35 35 0 0 1 15.4 12.8c3.8 5.7 5.7 12.9 5.7 21.5s-1.9 15.9-5.7 21.8a37.79 37.79 0 0 1-15.4 13.7 49.35 49.35 0 0 1-21.7 4.7h-17.2v46.61h-28.4l0.1-125.3zm28.4 56.2h9.3a28.39 28.39 0 0 0 10.4-1.7 15.42 15.42 0 0 0 7.4-5.5 16.59 16.59 0 0 0 2.8-9.9c0-4.1-0.9-7.4-2.8-9.9a15.2 15.2 0 0 0-7.4-5.3 30.57 30.57 0 0 0-10.4-1.6h-9.3z"
      />
      <path d="m333.2 732.17h-29.9v-24.8h88v24.8h-29.8v100.4h-28.4z" />
      <path d="m404.8 707.37h28.4v125.2h-28.4z" />
      <path
        d="m585.6 707.37v125.2h-28.3v-73.7l1.2-21-4.8 24-21 60.6h-27.8l-21-60.6-4.8-24 1.2 21v73.7h-28.3v-125.2h39.9l25.2 83.6 1.7 10 1.7-10 25.2-83.6z"
      />
      <path
        d="m677.7 707.37h28.4v76.9c0 10.3-2 19.2-6.1 26.8a42.52 42.52 0 0 1-17.4 17.5c-7.5 4.2-16.5 6.2-26.9 6.2s-19.5-2.1-27.1-6.2a42.52 42.52 0 0 1-17.4-17.5c-4-7.6-6-16.5-6-26.8v-76.9h28.3v75.4a35.47 35.47 0 0 0 2.7 14.4 19.62 19.62 0 0 0 7.7 8.9 22.45 22.45 0 0 0 11.9 3 22 22 0 0 0 11.7-3 18.85 18.85 0 0 0 7.6-8.9 35.78 35.78 0 0 0 2.7-14.4z"
      />
      <path
        d="m768.9 705.07a70.1 70.1 0 0 1 20.4 2.6 72.29 72.29 0 0 1 14 5.4 61.12 61.12 0 0 1 6.5 3.8l-13.7 22.9a41 41 0 0 0-5.2-3.3 44.47 44.47 0 0 0-8.6-3.9 33.32 33.32 0 0 0-10.4-1.7c-4.9 0-8.8 0.9-11.8 2.6a8.34 8.34 0 0 0-4.5 7.7 9.68 9.68 0 0 0 2.4 6.3 24.45 24.45 0 0 0 7.4 5.3c3.3 1.7 7.6 3.5 12.7 5.5a87.9 87.9 0 0 1 13.2 6.1 48.4 48.4 0 0 1 10.9 8.3 37.66 37.66 0 0 1 7.5 11 36.33 36.33 0 0 1 2.8 14.2 32.19 32.19 0 0 1-14.5 28 49.55 49.55 0 0 1-15.2 6.8 69.58 69.58 0 0 1-17.6 2.2 84.21 84.21 0 0 1-39.6-9.3 57.27 57.27 0 0 1-7.5-4.5l14.1-23.8a40.81 40.81 0 0 0 4.4 2.8 65.53 65.53 0 0 0 8 3.9 75.49 75.49 0 0 0 10.1 3.5 41.66 41.66 0 0 0 10.6 1.4c5.8 0 10.2-1.1 13.1-3.4a11.08 11.08 0 0 0 4.4-8.9 10.91 10.91 0 0 0-2.8-7.3 27.44 27.44 0 0 0-8.2-6.1c-4.5-2.3-9.1-4.4-13.7-6.2a80.37 80.37 0 0 1-15.4-8 37.65 37.65 0 0 1-11.6-11.9c-3-4.7-4.5-10.6-4.5-17.6a29.46 29.46 0 0 1 5.9-18.3 37.62 37.62 0 0 1 15.7-11.9 52.12 52.12 0 0 1 20.7-4.2z"
      />
      <path
        d="m906.3 793.97c0 8.5-1.6 15.9-4.8 22a33 33 0 0 1-13.7 14c-5.9 3.2-12.9 4.8-20.9 4.8a49.07 49.07 0 0 1-15.2-2.2 45.39 45.39 0 0 1-10.2-4.8 22.5 22.5 0 0 1-4.7-3.9l10.6-24.6a17.77 17.77 0 0 0 3.2 3.5 21.22 21.22 0 0 0 5.1 3.3 17.71 17.71 0 0 0 14.6-0.4 13.87 13.87 0 0 0 5.5-6 26.55 26.55 0 0 0 2-11.1v-81.2h28.4z"
      />
      <path
        d="m922.4 707.27h51a41.1 41.1 0 0 1 19.5 4.5 33 33 0 0 1 13.5 13.2c3.3 5.7 5 12.5 5 20.4s-1.4 14.4-4.2 19.4a31.3 31.3 0 0 1-10.1 11.3 29 29 0 0 1-10.9 4.5l30.5 51.9h-31.9l-27.1-49.7h-6.8v49.7h-28.4zm28.4 55.8h12.5a24.1 24.1 0 0 0 13.3-3.7c3.8-2.5 5.7-6.8 5.7-13.1s-1.9-10.6-5.6-13a23.55 23.55 0 0 0-13.2-3.7h-12.7z"
      />
      <path
        d="m136.4 919.47a20.88 20.88 0 0 0 7.4-1.2 16.53 16.53 0 0 0 4.6-2.3l3.3 6.7a20 20 0 0 1-5.8 3 28 28 0 0 1-9.9 1.5 25 25 0 0 1-10.1-2 27.48 27.48 0 0 1-8.2-5.3 26 26 0 0 1-5.5-8 26.62 26.62 0 0 1 0-20 24.76 24.76 0 0 1 5.5-8.1 26.16 26.16 0 0 1 18.3-7.4 30.11 30.11 0 0 1 9.9 1.5 20 20 0 0 1 5.8 3l-3.3 6.7a16.53 16.53 0 0 0-4.6-2.3 23.4 23.4 0 0 0-7.4-1.2 20.07 20.07 0 0 0-7.3 1.3 15.08 15.08 0 0 0-5.6 3.8 15.84 15.84 0 0 0-3.6 5.6 18 18 0 0 0-1.3 6.9 18.51 18.51 0 0 0 1.3 7 15.84 15.84 0 0 0 3.6 5.6 16.1 16.1 0 0 0 5.6 3.7 16.77 16.77 0 0 0 7.3 1.5z"
      />
      <path
        d="m156.9 901.77a26 26 0 0 1 7.1-18.09 24.81 24.81 0 0 1 7.8-5.4 25.35 25.35 0 0 1 19.5 0 23.77 23.77 0 0 1 13 13.4 28.11 28.11 0 0 1 1.8 10 28.52 28.52 0 0 1-1.8 10 26.41 26.41 0 0 1-5.1 8.1 23.69 23.69 0 0 1-17.7 7.3 25.66 25.66 0 0 1-9.9-1.9 23.27 23.27 0 0 1-7.8-5.4 25.28 25.28 0 0 1-5.1-8.1 27.57 27.57 0 0 1-1.8-9.91zm8.1 0a20.27 20.27 0 0 0 2.1 9.1 16 16 0 0 0 22.9 6.5 15.85 15.85 0 0 0 5.8-6.5 20.77 20.77 0 0 0 0-18.2 15.58 15.58 0 0 0-5.8-6.4 16.43 16.43 0 0 0-17.1 0 16.23 16.23 0 0 0-5.8 6.4 20.27 20.27 0 0 0-2.1 9.1z"
      />
      <path
        d="m220.3 884.68 0.5 0.1v41.5h-7.8v-48.9h10.9l23.6 41.5-0.5 0.1v-41.6h7.8v48.9h-10.9z"
      />
      <path d="m274.1 884.27h-12.7v-7h33.2v7h-12.7v41.9h-7.8z" />
      <path
        d="m301.3 877.37h18a15.37 15.37 0 0 1 7.3 1.7 12.3 12.3 0 0 1 5.2 4.9 15.28 15.28 0 0 1 1.9 7.8 15 15 0 0 1-1.7 7.5 11.81 11.81 0 0 1-4.2 4.4 10.68 10.68 0 0 1-4.6 1.7l12 20.9h-8.8l-11-20.3h-6.3v20.3h-7.8zm7.7 23h7.4a10.33 10.33 0 0 0 6.6-2c1.8-1.3 2.7-3.5 2.7-6.4s-0.9-5.1-2.6-6.4a10.87 10.87 0 0 0-6.6-1.9h-7.5z"
      />
      <path
        d="m341.1 901.77a26 26 0 0 1 7.1-18.1 24.81 24.81 0 0 1 7.8-5.4 25.35 25.35 0 0 1 19.5 0 24.81 24.81 0 0 1 7.8 5.4 23.67 23.67 0 0 1 5.1 8.1 28.4 28.4 0 0 1 0 19.9 26.41 26.41 0 0 1-5.1 8.1 23.72 23.72 0 0 1-7.8 5.4 26.11 26.11 0 0 1-19.8 0 23.27 23.27 0 0 1-7.8-5.4 25.19 25.19 0 0 1-6.8-18zm8.1 0a20.27 20.27 0 0 0 2.1 9.1 16 16 0 0 0 22.9 6.5 15.85 15.85 0 0 0 5.8-6.5 20.77 20.77 0 0 0 0-18.2 15.58 15.58 0 0 0-5.8-6.4 16.43 16.43 0 0 0-17.1 0 16.23 16.23 0 0 0-5.8 6.4 19 19 0 0 0-2.1 9.1z"
      />
      <path d="m397.3 877.37h7.8v41.9h18.8v7h-26.6z" />
      <path d="m431.9 877.37h29.6v7h-21.9v14h21.5v6.8h-21.5v14.2h21.9v7h-29.6z" />
      <path d="m489.9 877.37h29.6v7h-21.9v14h21.5v6.8h-21.5v14.2h21.9v7h-29.6z" />
      <path
        d="m563 877.37h8l18.5 48.9h-8.3l-4-11.2h-20.3l-4.1 11.2h-8.3zm-3.6 30.7h15.1l-7.5-21.3h-0.1z"
      />
      <path
        d="m624.1 877.37h7.8v30.31a20.94 20.94 0 0 1-2.4 10.4 16.86 16.86 0 0 1-6.7 6.8 22.24 22.24 0 0 1-19.8 0 16.27 16.27 0 0 1-6.7-6.8 20.94 20.94 0 0 1-2.4-10.4v-30.3h7.8v29.9a13.3 13.3 0 0 0 1.5 6.8 11.29 11.29 0 0 0 4 4.4 12 12 0 0 0 11.6 0 10.64 10.64 0 0 0 4-4.4 14.58 14.58 0 0 0 1.4-6.8z"
      />
      <path d="m650.4 884.27h-12.7v-7h33.2v7h-12.7v41.9h-7.8z" />
      <path
        d="m675.4 901.77a26 26 0 0 1 7.1-18.1 24.81 24.81 0 0 1 7.8-5.4 25.35 25.35 0 0 1 19.5 0 23.91 23.91 0 0 1 12.9 13.41 28.4 28.4 0 0 1 0 19.9 23.79 23.79 0 0 1-12.9 13.5 26.11 26.11 0 0 1-19.8 0 23.27 23.27 0 0 1-7.8-5.4 25.28 25.28 0 0 1-5.1-8.1 28.83 28.83 0 0 1-1.7-9.81zm8.2 0a20.27 20.27 0 0 0 2.1 9.1 16 16 0 0 0 28.7 0 20.77 20.77 0 0 0 0-18.2 16.23 16.23 0 0 0-5.8-6.4 16.43 16.43 0 0 0-17.1 0 16.23 16.23 0 0 0-5.8 6.4 17.94 17.94 0 0 0-2.1 9.1z"
      />
      <path
        d="m778.3 877.37v48.9h-7.8v-33.3l0.4-6.3-1.5 7-10.7 29.4h-7.7l-10.7-29.39-1.5-7 0.4 6.3v33.3h-7.8v-49h10.6l12.2 36.6 0.5 2.9 0.5-2.9 12.3-36.6z"
      />
      <path
        d="m803.3 877.37h8l18.5 48.9h-8.3l-4-11.2h-20.2l-4.1 11.2h-8.3zm-3.6 30.7h15.2l-7.5-21.3h-0.1z"
      />
      <path
        d="m859 919.47a20.88 20.88 0 0 0 7.4-1.2 16.53 16.53 0 0 0 4.6-2.3l3.3 6.7a20 20 0 0 1-5.8 3 28 28 0 0 1-9.9 1.5 26.66 26.66 0 0 1-10.1-1.9 27.48 27.48 0 0 1-8.2-5.3 26 26 0 0 1-5.5-8 26.62 26.62 0 0 1 0-20 24.76 24.76 0 0 1 5.5-8.1 26.16 26.16 0 0 1 18.3-7.4 27.7 27.7 0 0 1 9.9 1.5 20 20 0 0 1 5.8 3l-3.3 6.7a16.53 16.53 0 0 0-4.6-2.3 23.4 23.4 0 0 0-7.4-1.2 20.07 20.07 0 0 0-7.3 1.3 15.08 15.08 0 0 0-5.6 3.8 15.84 15.84 0 0 0-3.6 5.6 18 18 0 0 0-1.3 6.9 18.51 18.51 0 0 0 1.3 7 15.84 15.84 0 0 0 3.6 5.6 16.1 16.1 0 0 0 5.6 3.7 20.16 20.16 0 0 0 7.3 1.4zm-0.3 22.6a15.38 15.38 0 0 1-5.2-0.9 11.37 11.37 0 0 1-3.2-1.8l2.9-3.4a8.58 8.58 0 0 0 2 1.3 5.55 5.55 0 0 0 2.8 0.7 5 5 0 0 0 2.7-0.7 2.31 2.31 0 0 0 1.1-2 2.22 2.22 0 0 0-1-2 4.51 4.51 0 0 0-2.5-0.7 13.55 13.55 0 0 0-2 0.2l-1.2 0.3-0.9-0.6 2.9-8 3.2 1.2-1.6 4.3a9.66 9.66 0 0 1 3.8 0.2 6.65 6.65 0 0 1 3.2 1.7 3.89 3.89 0 0 1 1.3 3.2 5.27 5.27 0 0 1-1.2 3.8 9.61 9.61 0 0 1-7.1 3.2z"
      />
      <path
        d="m896.8 877.37h8l18.5 48.9h-8.4l-4-11.2h-20.2l-4.1 11.2h-8.3zm-8.8-3.4a17.06 17.06 0 0 1 1.3-3.8 9 9 0 0 1 2.5-3.3 5.43 5.43 0 0 1 3.6-1.4 10.36 10.36 0 0 1 3.9 0.7c1.1 0.5 2.1 0.9 3.1 1.4a6.7 6.7 0 0 0 3.1 0.7 2.52 2.52 0 0 0 2-0.9 6.37 6.37 0 0 0 1-1.8h5.1a17.06 17.06 0 0 1-1.3 3.8 10.3 10.3 0 0 1-2.5 3.3 5.43 5.43 0 0 1-3.6 1.4 10.36 10.36 0 0 1-3.9-0.7c-1.1-0.5-2.1-0.9-3-1.4a6 6 0 0 0-3-0.7 2.28 2.28 0 0 0-1.9 1 6.7 6.7 0 0 0-1.1 1.8zm5.2 34.2h15.1l-7.5-21.3h-0.1z"
      />
      <path
        d="m925.9 901.77a26 26 0 0 1 7.1-18.1 24.81 24.81 0 0 1 7.8-5.4 25.35 25.35 0 0 1 19.5 0 24.81 24.81 0 0 1 7.8 5.4 25.55 25.55 0 0 1 5.2 8.1 28.4 28.4 0 0 1 0 19.9 26.41 26.41 0 0 1-5.1 8.1 24.81 24.81 0 0 1-7.8 5.4 23.78 23.78 0 0 1-9.8 1.9 25.66 25.66 0 0 1-9.9-1.9 23.27 23.27 0 0 1-7.8-5.4 25.28 25.28 0 0 1-5.1-8.1 25.66 25.66 0 0 1-1.9-9.9zm8.1 0a20.27 20.27 0 0 0 2.1 9.1 16 16 0 0 0 28.7 0 20.77 20.77 0 0 0 0-18.2 16.23 16.23 0 0 0-5.8-6.4 16.43 16.43 0 0 0-17.1 0 16.23 16.23 0 0 0-5.8 6.4 19 19 0 0 0-2.1 9.1z"
      />
    </g>
  </g>
</svg>
