<?xml version="1.0" encoding="UTF-8"?>
<svg width="839.77mm" height="127.47mm" version="1.1" viewBox="0 0 3173.9 481.78" xml:space="preserve" xmlns="http://www.w3.org/2000/svg"><g transform="translate(-1010.6 -1800)" fill="#ffffff" stroke-linecap="square" stroke-linejoin="round" stroke-miterlimit="168.2"><g transform="matrix(2.9335,0,0,2.9335,720.16,-202.69)" stop-color="#000000" stroke-width="9.0039" style="paint-order:markers stroke fill" aria-label="OPTIMUS"><path d="m136.34 764.71q0 13.566 5.5224 24.611 5.6425 10.925 15.487 17.408 9.9644 6.4828 23.05 6.4828 13.086 0 22.93-6.4828 9.9644-6.4828 15.487-17.408 5.6425-11.045 5.6425-24.611t-5.6425-24.491q-5.5224-10.925-15.487-17.408-9.8443-6.6029-22.93-6.6029-13.086 0-23.05 6.6029-9.8443 6.4828-15.487 17.408-5.5224 10.925-5.5224 24.491zm-37.336 0q0-17.288 6.1227-32.174 6.1227-15.007 17.168-26.171 11.045-11.165 25.931-17.408t32.174-6.2427q17.528 0 32.294 6.2427 14.887 6.2427 25.811 17.408 11.045 11.165 17.047 26.171 6.1227 14.887 6.1227 32.174 0 17.408-5.8826 32.414-5.8826 14.887-16.807 26.171-10.925 11.165-25.811 17.408t-32.774 6.2427q-18.248 0-33.255-6.2427-14.887-6.2427-25.691-17.408-10.805-11.285-16.687-26.171-5.7625-15.007-5.7625-32.414z"/><path d="m282.44 685.59h57.625q15.247 0 27.492 5.4024 12.245 5.2823 19.449 16.207 7.3232 10.805 7.3232 27.132 0 16.207-7.3232 27.612-7.2032 11.285-19.449 17.288-12.245 5.8826-27.492 5.8826h-21.73v58.946h-35.896zm35.896 71.191h11.765q7.3232 0 13.086-2.1609 5.8826-2.161 9.3641-6.843 3.4815-4.8021 3.4815-12.606 0-7.9235-3.4815-12.485-3.4815-4.682-9.3641-6.7229-5.7625-2.0409-13.086-2.0409h-11.765z"/><path d="m442.59 717.05h-37.817v-31.454h111.41v31.454h-37.696v127.02h-35.896z"/><path d="m536.83 685.59h35.896v158.47h-35.896z"/><path d="m769.26 685.59v158.47h-35.776v-93.281l1.5607-26.532-6.1227 30.373-26.652 76.714h-35.175l-26.532-76.714-6.0026-30.373 1.5607 26.532v93.281h-35.896v-158.47h50.422l31.934 105.77 2.161 12.606 2.1609-12.606 31.934-105.77z"/><path d="m889.43 685.59h35.896v97.363q0 19.569-7.6834 33.975-7.6834 14.286-21.97 22.21-14.286 7.8034-34.095 7.8034-19.929 0-34.335-7.8034-14.406-7.9235-22.09-22.21-7.5633-14.406-7.5633-33.975v-97.363h35.776v95.442q0 10.805 3.3615 18.248 3.4815 7.4432 9.8443 11.285 6.3628 3.7216 15.007 3.7216 8.5237 0 14.766-3.7216 6.2427-3.8417 9.6042-11.285 3.4815-7.4433 3.4815-18.248z"/><path d="m1008.4 682.71q14.766 0 25.811 3.2414t17.768 6.843q6.7229 3.6016 8.1636 4.8021l-17.288 28.933q-1.9208-1.4406-6.6029-4.2018-4.562-2.7612-10.925-4.9222-6.2427-2.1609-13.086-2.1609-9.244 0-15.007 3.3615-5.6425 3.2414-5.6425 9.7242 0 4.4419 3.0013 8.0435 3.1214 3.4815 9.3641 6.7229 6.3628 3.1214 16.087 6.843 8.8839 3.2414 16.687 7.6834t13.686 10.565q6.0026 6.0026 9.4842 13.926 3.4815 7.9235 3.4815 18.008 0 12.005-4.9222 20.889-4.9221 8.7638-13.446 14.526-8.4037 5.7625-19.208 8.5237-10.685 2.8813-22.21 2.8813-16.327 0-29.293-3.7216-12.846-3.7216-20.769-8.0435-7.9235-4.3219-9.4842-5.7625l17.888-30.133q1.4406 1.0805 5.5224 3.4815 4.2018 2.401 10.204 5.0422 6.0026 2.5211 12.726 4.3219 6.843 1.8008 13.446 1.8008 11.045 0 16.567-4.2018 5.5224-4.3219 5.5224-11.285 0-5.1623-3.4815-9.244-3.4815-4.0818-10.445-7.6834-6.963-3.7216-17.408-7.8034-10.445-4.2018-19.569-10.204-9.0039-6.0026-14.646-15.007-5.6425-9.0039-5.6425-22.33 0-13.326 7.4432-23.05 7.5633-9.8443 19.809-15.127 12.365-5.2823 26.412-5.2823z"/></g><g transform="matrix(2.9335,0,0,2.9335,720.16,-202.69)" stop-color="#000000" stroke-width="4.5824" style="paint-order:markers stroke fill" aria-label="JR"><path d="m1108.1 738.56q0 8.2482-3.116 14.175-3.0549 5.8654-8.7981 8.9814-5.6821 3.116-13.442 3.116-5.621 0-9.7756-1.4664-4.1547-1.4053-6.5986-3.0549-2.4439-1.7108-2.9938-2.5661l6.843-15.824q0.7331 1.0387 2.0773 2.2606 1.3441 1.222 3.2993 2.1384 1.9551 0.85538 4.399 0.85538 2.8105 0 5.0101-1.1609 2.1995-1.1609 3.4826-3.8492 1.3441-2.6883 1.3441-7.1485v-52.3h18.268z"/><path d="m1120.3 682.71h32.871q7.0263 0 12.525 2.9327t8.6759 8.4926q3.2382 5.4988 3.2382 13.136t-2.7494 12.525q-2.6883 4.8267-6.4764 7.2707-3.7881 2.3828-7.0263 2.8716l19.612 33.421h-20.529l-17.474-32.015h-4.399v32.015h-18.268zm18.268 35.987h8.0649q4.8878 0 8.5537-2.3828t3.6659-8.4315-3.6048-8.3704q-3.6048-2.3828-8.4926-2.3828h-8.1871z"/></g></g></svg>
