<?xml version="1.0" encoding="UTF-8"?>
<svg width="1601.7" height="359.99" version="1.1" viewBox="0 0 1601.7 359.99" xml:space="preserve" xmlns="http://www.w3.org/2000/svg"><g transform="matrix(.3736 0 0 .3736 6.1035e-6 3.0518e-5)"><g transform="matrix(2.9335,0,0,2.9335,822.78,-1761.8)" fill="#2f2f2f" stop-color="#000000" stroke-linecap="square" stroke-linejoin="round" stroke-miterlimit="168.2" stroke-width="2.3966" style="paint-order:markers stroke fill" aria-label="CONTROLE E AUTOMAÇÃO"><path d="m296.65 899.28q3.9304 0 6.8064-1.0865 2.9079-1.0864 4.1222-2.109l2.3966 4.6974q-1.438 1.2782-5.0169 2.5883-3.547 1.3101-8.5319 1.3101-4.6654 0-8.6597-1.6616t-6.9981-4.6334q-2.9718-2.9718-4.6654-6.9342-1.6616-3.9624-1.6616-8.5639t1.6616-8.5958 4.6334-6.9661q3.0037-3.0037 6.9981-4.6654 4.0263-1.6936 8.6917-1.6936 4.9849 0 8.5319 1.3101 3.5789 1.3101 5.0169 2.5883l-2.3966 4.6973q-1.2143-1.0545-4.1222-2.109-2.8759-1.0865-6.8064-1.0865-3.5789 0-6.5507 1.2143t-5.1767 3.4511q-2.1729 2.2049-3.3872 5.2086-1.1823 3.0037-1.1823 6.5507 0 3.5789 1.1823 6.6146 1.2143 3.0037 3.3872 5.2406 2.2049 2.2049 5.1767 3.4192t6.5507 1.2143z"/><path d="m320.1 882.79q0 4.6973 1.9492 8.468 1.9812 3.7707 5.4323 6.0075 3.4511 2.2049 7.9248 2.2049 4.5056 0 7.9248-2.2049 3.4511-2.2368 5.4004-6.0075 1.9492-3.7706 1.9492-8.468t-1.9492-8.436q-1.9492-3.7707-5.4004-5.9755-3.4192-2.2049-7.9248-2.2049-4.4737 0-7.9248 2.2049t-5.4323 5.9755q-1.9492 3.7387-1.9492 8.436zm-5.656 0q0-4.6015 1.5658-8.5639 1.5977-3.9943 4.4417-6.9661t6.6466-4.6334q3.8346-1.6616 8.3082-1.6616 4.5056 0 8.3082 1.6616 3.8346 1.6616 6.6466 4.6334 2.844 2.9718 4.4098 6.9661 1.5658 3.9624 1.5658 8.5639 0 4.6334-1.5658 8.6278-1.5338 3.9624-4.3778 6.9661-2.812 2.9718-6.6146 4.6334t-8.3721 1.6616-8.436-1.6616q-3.8346-1.6616-6.6466-4.6334-2.812-3.0037-4.3458-6.9661-1.5338-3.9943-1.5338-8.6278z"/><path d="m367.84 866.91 0.35151 0.0639v36.94h-5.4643v-42.18h7.7011l21.889 36.908-0.3515 0.0639v-36.972h5.4643v42.18h-7.765z"/><path d="m414.75 866.69h-11.376v-4.953h28.248v4.953h-11.376v37.227h-5.4962z"/><path d="m437.63 861.74h14.731q3.4192 0 6.1992 1.438 2.812 1.406 4.4737 4.1541 1.6936 2.7162 1.6936 6.6466 0 3.8985-1.5658 6.4548-1.5338 2.5564-3.7068 3.8665-2.1729 1.2782-4.0263 1.406l10.449 18.214h-6.1992l-9.7781-17.831h-6.8064v17.831h-5.4643zm5.4643 20.291h7.3496q3.7706 0 6.2312-1.8853 2.4605-1.8853 2.4605-6.0394t-2.4605-5.9755q-2.4286-1.8214-6.1992-1.8214h-7.3815z"/><path d="m475.63 882.79q0 4.6973 1.9492 8.468 1.9812 3.7707 5.4323 6.0075 3.4511 2.2049 7.9248 2.2049 4.5056 0 7.9248-2.2049 3.4511-2.2368 5.4004-6.0075 1.9492-3.7706 1.9492-8.468t-1.9492-8.436q-1.9492-3.7707-5.4004-5.9755-3.4192-2.2049-7.9248-2.2049-4.4737 0-7.9248 2.2049t-5.4323 5.9755q-1.9492 3.7387-1.9492 8.436zm-5.656 0q0-4.6015 1.5658-8.5639 1.5977-3.9943 4.4417-6.9661t6.6466-4.6334q3.8346-1.6616 8.3082-1.6616 4.5056 0 8.3082 1.6616 3.8346 1.6616 6.6466 4.6334 2.844 2.9718 4.4098 6.9661 1.5658 3.9624 1.5658 8.5639 0 4.6334-1.5658 8.6278-1.5338 3.9624-4.3778 6.9661-2.812 2.9718-6.6146 4.6334t-8.3721 1.6616-8.436-1.6616q-3.8346-1.6616-6.6466-4.6334-2.812-3.0037-4.3458-6.9661-1.5338-3.9943-1.5338-8.6278z"/><path d="m518.22 861.74h5.4642v37.227h16.584v4.953h-22.049z"/><path d="m547.56 861.74h24.925v4.953h-19.524v13.677h19.141v4.8252h-19.141v13.772h19.524v4.953h-24.925z"/><path d="m597.08 861.74h24.925v4.953h-19.524v13.677h19.141v4.8252h-19.141v13.772h19.524v4.953h-24.925z"/><path d="m659.36 861.74h5.6879l15.594 42.18h-5.8477l-3.6428-10.162h-17.895l-3.7067 10.162h-5.8477zm-4.3458 27.098h14.412l-7.1578-20.387h-0.0959z"/><path d="m711.55 861.74h5.4642v26.203q0 5.2086-2.0771 8.9793-2.077 3.7387-5.7199 5.7518-3.6109 2.0132-8.2763 2.0132t-8.3402-2.0132q-3.6428-2.0131-5.7199-5.7518-2.0771-3.7707-2.0771-8.9793v-26.203h5.4323v25.915q0 3.6748 1.406 6.359t3.8346 4.1541q2.4286 1.438 5.4643 1.438t5.4323-1.438q2.3966-1.4699 3.7707-4.1541 1.406-2.6842 1.406-6.359z"/><path d="m733.63 866.69h-11.376v-4.953h28.248v4.953h-11.376v37.227h-5.4962z"/><path d="m758.46 882.79q0 4.6973 1.9492 8.468 1.9812 3.7707 5.4323 6.0075 3.4511 2.2049 7.9248 2.2049 4.5056 0 7.9248-2.2049 3.4511-2.2368 5.4003-6.0075 1.9492-3.7706 1.9492-8.468t-1.9492-8.436q-1.9492-3.7707-5.4003-5.9755-3.4192-2.2049-7.9248-2.2049-4.4737 0-7.9248 2.2049t-5.4323 5.9755q-1.9492 3.7387-1.9492 8.436zm-5.656 0q0-4.6015 1.5658-8.5639 1.5977-3.9943 4.4417-6.9661t6.6466-4.6334q3.8346-1.6616 8.3082-1.6616 4.5056 0 8.3082 1.6616 3.8346 1.6616 6.6466 4.6334 2.844 2.9718 4.4098 6.9661 1.5658 3.9624 1.5658 8.5639 0 4.6334-1.5658 8.6278-1.5338 3.9624-4.3778 6.9661-2.812 2.9718-6.6146 4.6334t-8.3721 1.6616-8.436-1.6616q-3.8346-1.6616-6.6466-4.6334-2.812-3.0037-4.3458-6.9661-1.5338-3.9943-1.5338-8.6278z"/><path d="m839.24 861.74v42.18h-5.4323v-30.453l0.28759-4.6654-1.1504 5.1447-10.162 27.577h-5.4003l-10.162-27.577-1.1184-5.1447 0.25563 4.6654v30.453h-5.4642v-42.18h7.2857l11.504 33.105 0.38346 2.141 0.41541-2.141 11.536-33.105z"/><path d="m860.97 861.74h5.6879l15.594 42.18h-5.8477l-3.6428-10.162h-17.895l-3.7067 10.162h-5.8477zm-4.3458 27.098h14.412l-7.1578-20.387h-0.0959z"/><path d="m907.27 899.28q3.9304 0 6.8064-1.0865 2.9079-1.0864 4.1222-2.109l2.3966 4.6974q-1.438 1.2782-5.0169 2.5883-3.547 1.3101-8.5319 1.3101-4.6654 0-8.6597-1.6616t-6.9981-4.6334q-2.9718-2.9718-4.6654-6.9342-1.6616-3.9624-1.6616-8.5639t1.6616-8.5958 4.6334-6.9661q3.0037-3.0037 6.9981-4.6654 4.0263-1.6936 8.6917-1.6936 4.9849 0 8.5319 1.3101 3.5789 1.3101 5.0169 2.5883l-2.3966 4.6973q-1.2143-1.0545-4.1222-2.109-2.8759-1.0865-6.8064-1.0865-3.5789 0-6.5507 1.2143t-5.1767 3.4511q-2.1729 2.2049-3.3872 5.2086-1.1823 3.0037-1.1823 6.5507 0 3.5789 1.1823 6.6146 1.2143 3.0037 3.3872 5.2406 2.2049 2.2049 5.1767 3.4192t6.5507 1.2143zm-0.12782 18.214q-2.3327 0-4.1861-0.73495-1.8214-0.70301-2.6203-1.3741l2.2049-2.5883q0.60714 0.54323 1.7575 1.0865 1.1823 0.57519 2.4925 0.57519 1.5338 0 2.5564-0.70301 1.0545-0.67104 1.0545-1.7895 0-1.2143-0.89473-1.7895-0.86277-0.57519-2.2049-0.57519-0.9906 0-1.7895 0.12782-0.79887 0.15978-1.1504 0.31955l-0.92669-0.54323 2.4605-6.9342 2.4925 1.0226-1.4699 4.0902q1.5338-0.31955 3.2274-0.0319 1.6936 0.31954 2.8759 1.3101 1.1823 1.0226 1.1823 2.7801 0 1.8853-1.0545 3.1635-1.0226 1.2782-2.6522 1.9173-1.5977 0.67104-3.3552 0.67104z"/><path d="m939.93 861.74h5.6879l15.594 42.18h-5.8477l-3.6428-10.162h-17.895l-3.7068 10.162h-5.8477zm-4.3458 27.098h14.412l-7.1579-20.387h-0.0959zm-3.4511-30.037q0.31955-1.4699 1.0865-3.0037 0.79887-1.5338 2.0451-2.5883 1.2782-1.0865 2.9718-1.0865 1.9492 0 3.2913 0.60714t2.5244 1.2143q1.1823 0.60714 2.6203 0.60714 1.1184 0 1.7895-0.83082t0.86278-1.5977h4.0263q-0.31955 1.406-1.1504 2.9718-0.79887 1.5338-2.0771 2.6203-1.2462 1.0865-2.9398 1.0865-1.9492 0-3.3233-0.60714-1.374-0.60714-2.5244-1.2143t-2.4286-0.60714q-1.0545 0-1.7895 0.83082-0.703 0.79887-0.95864 1.5977z"/><path d="m969.33 882.79q0 4.6973 1.9492 8.468 1.9812 3.7707 5.4323 6.0075 3.4511 2.2049 7.9248 2.2049 4.5056 0 7.9248-2.2049 3.4511-2.2368 5.4003-6.0075 1.9492-3.7706 1.9492-8.468t-1.9492-8.436q-1.9492-3.7707-5.4003-5.9755-3.4192-2.2049-7.9248-2.2049-4.4737 0-7.9248 2.2049t-5.4323 5.9755q-1.9492 3.7387-1.9492 8.436zm-5.656 0q0-4.6015 1.5658-8.5639 1.5977-3.9943 4.4417-6.9661t6.6466-4.6334q3.8346-1.6616 8.3082-1.6616 4.5056 0 8.3082 1.6616 3.8346 1.6616 6.6466 4.6334 2.844 2.9718 4.4098 6.9661 1.5657 3.9624 1.5657 8.5639 0 4.6334-1.5657 8.6278-1.5339 3.9624-4.3778 6.9661-2.812 2.9718-6.6146 4.6334t-8.3721 1.6616-8.436-1.6616q-3.8346-1.6616-6.6466-4.6334-2.812-3.0037-4.3458-6.9661-1.5338-3.9943-1.5338-8.6278z"/></g><g transform="translate(102.67,-1559.1)" fill="#2f2f2f" stroke-linecap="square" stroke-linejoin="round" stroke-miterlimit="168.2"><g transform="matrix(2.9335,0,0,2.9335,720.16,-202.69)" stop-color="#000000" stroke-width="9.0039" style="paint-order:markers stroke fill" aria-label="OPTIMUS"><path d="m136.34 764.71q0 13.566 5.5224 24.611 5.6425 10.925 15.487 17.408 9.9644 6.4828 23.05 6.4828 13.086 0 22.93-6.4828 9.9644-6.4828 15.487-17.408 5.6425-11.045 5.6425-24.611t-5.6425-24.491q-5.5224-10.925-15.487-17.408-9.8443-6.6029-22.93-6.6029-13.086 0-23.05 6.6029-9.8443 6.4828-15.487 17.408-5.5224 10.925-5.5224 24.491zm-37.336 0q0-17.288 6.1227-32.174 6.1227-15.007 17.168-26.171 11.045-11.165 25.931-17.408t32.174-6.2427q17.528 0 32.294 6.2427 14.887 6.2427 25.811 17.408 11.045 11.165 17.047 26.171 6.1227 14.887 6.1227 32.174 0 17.408-5.8826 32.414-5.8826 14.887-16.807 26.171-10.925 11.165-25.811 17.408t-32.774 6.2427q-18.248 0-33.255-6.2427-14.887-6.2427-25.691-17.408-10.805-11.285-16.687-26.171-5.7625-15.007-5.7625-32.414z"/><path d="m282.44 685.59h57.625q15.247 0 27.492 5.4024 12.245 5.2823 19.449 16.207 7.3232 10.805 7.3232 27.132 0 16.207-7.3232 27.612-7.2032 11.285-19.449 17.288-12.245 5.8826-27.492 5.8826h-21.73v58.946h-35.896zm35.896 71.191h11.765q7.3232 0 13.086-2.1609 5.8826-2.161 9.3641-6.843 3.4815-4.8021 3.4815-12.606 0-7.9235-3.4815-12.485-3.4815-4.682-9.3641-6.7229-5.7625-2.0409-13.086-2.0409h-11.765z"/><path d="m442.59 717.05h-37.817v-31.454h111.41v31.454h-37.696v127.02h-35.896z"/><path d="m536.83 685.59h35.896v158.47h-35.896z"/><path d="m769.26 685.59v158.47h-35.776v-93.281l1.5607-26.532-6.1227 30.373-26.652 76.714h-35.175l-26.532-76.714-6.0026-30.373 1.5607 26.532v93.281h-35.896v-158.47h50.422l31.934 105.77 2.161 12.606 2.1609-12.606 31.934-105.77z"/><path d="m889.43 685.59h35.896v97.363q0 19.569-7.6834 33.975-7.6834 14.286-21.97 22.21-14.286 7.8034-34.095 7.8034-19.929 0-34.335-7.8034-14.406-7.9235-22.09-22.21-7.5633-14.406-7.5633-33.975v-97.363h35.776v95.442q0 10.805 3.3615 18.248 3.4815 7.4432 9.8443 11.285 6.3628 3.7216 15.007 3.7216 8.5237 0 14.766-3.7216 6.2427-3.8417 9.6042-11.285 3.4815-7.4433 3.4815-18.248z"/><path d="m1008.4 682.71q14.766 0 25.811 3.2414t17.768 6.843q6.7229 3.6016 8.1636 4.8021l-17.288 28.933q-1.9208-1.4406-6.6029-4.2018-4.562-2.7612-10.925-4.9222-6.2427-2.1609-13.086-2.1609-9.244 0-15.007 3.3615-5.6425 3.2414-5.6425 9.7242 0 4.4419 3.0013 8.0435 3.1214 3.4815 9.3641 6.7229 6.3628 3.1214 16.087 6.843 8.8839 3.2414 16.687 7.6834t13.686 10.565q6.0026 6.0026 9.4842 13.926 3.4815 7.9235 3.4815 18.008 0 12.005-4.9222 20.889-4.9221 8.7638-13.446 14.526-8.4037 5.7625-19.208 8.5237-10.685 2.8813-22.21 2.8813-16.327 0-29.293-3.7216-12.846-3.7216-20.769-8.0435-7.9235-4.3219-9.4842-5.7625l17.888-30.133q1.4406 1.0805 5.5224 3.4815 4.2018 2.401 10.204 5.0422 6.0026 2.5211 12.726 4.3219 6.843 1.8008 13.446 1.8008 11.045 0 16.567-4.2018 5.5224-4.3219 5.5224-11.285 0-5.1623-3.4815-9.244-3.4815-4.0818-10.445-7.6834-6.963-3.7216-17.408-7.8034-10.445-4.2018-19.569-10.204-9.0039-6.0026-14.646-15.007-5.6425-9.0039-5.6425-22.33 0-13.326 7.4432-23.05 7.5633-9.8443 19.809-15.127 12.365-5.2823 26.412-5.2823z"/></g><g transform="matrix(2.9335,0,0,2.9335,720.16,-202.69)" stop-color="#000000" stroke-width="4.5824" style="paint-order:markers stroke fill" aria-label="JR"><path d="m1108.1 738.56q0 8.2482-3.116 14.175-3.0549 5.8654-8.7981 8.9814-5.6821 3.116-13.442 3.116-5.621 0-9.7756-1.4664-4.1547-1.4053-6.5986-3.0549-2.4439-1.7108-2.9938-2.5661l6.843-15.824q0.7331 1.0387 2.0773 2.2606 1.3441 1.222 3.2993 2.1384 1.9551 0.85538 4.399 0.85538 2.8105 0 5.0101-1.1609 2.1995-1.1609 3.4826-3.8492 1.3441-2.6883 1.3441-7.1485v-52.3h18.268z"/><path d="m1120.3 682.71h32.871q7.0263 0 12.525 2.9327t8.6759 8.4926q3.2382 5.4988 3.2382 13.136t-2.7494 12.525q-2.6883 4.8267-6.4764 7.2707-3.7881 2.3828-7.0263 2.8716l19.612 33.421h-20.529l-17.474-32.015h-4.399v32.015h-18.268zm18.268 35.987h8.0649q4.8878 0 8.5537-2.3828t3.6659-8.4315-3.6048-8.3704q-3.6048-2.3828-8.4926-2.3828h-8.1871z"/></g></g><g transform="matrix(15.056,0,0,15.056,-3.2056e-6,-8.0961e-5)"><circle cx="32" cy="32" r="32" fill="#136041" stop-color="#000000" stroke-linecap="round" stroke-linejoin="round" stroke-miterlimit="168.2" stroke-width="7.5591" style="paint-order:markers stroke fill"/><path d="m51.648 20.71 4.3299-4.3299-8.358-8.358-4.3299 4.3302c-1.6713-0.96231-3.4752-1.719-5.3802-2.2322v-6.1199h-11.82v6.1199c-1.9048 0.51323-3.7087 1.2696-5.3798 2.2322l-4.3302-4.3302-4.1791 4.179-4.1788 4.179 4.3299 4.3299c-0.9625 1.6713-1.7188 3.4752-2.2321 5.3805h-6.1199v11.819h6.1199c0.51326 1.9051 1.2698 3.7091 2.2321 5.3806l-4.3299 4.3301 4.1788 4.1789 4.1791 4.1787 4.3302-4.33c1.6711 0.9625 3.475 1.7187 5.3798 2.2319v6.1201h11.82v-6.1201c1.905-0.51318 3.7089-1.2694 5.3802-2.2319l4.3299 4.33 8.358-8.3576-4.3299-4.3301c0.96231-1.6715 1.7187-3.4755 2.2317-5.3806h6.1201v-11.819h-6.1201c-0.513-1.9053-1.2694-3.7092-2.2317-5.3805zm-9.0406 13.54c-0.28115 1.3255-0.80546 2.5616-1.5232 3.6603-0.41346 0.63324-0.88825 1.222-1.4204 1.7545-0.53257 0.5318-1.121 1.0067-1.7541 1.4202-1.0991 0.71742-2.3353 1.2419-3.6606 1.523-0.72598 0.15376-1.4779 0.23621-2.2494 0.23621-0.77103 0-1.5232-0.08246-2.2494-0.23621-1.3255-0.28101-2.5613-0.80554-3.6607-1.523-0.63286-0.41351-1.2214-0.88844-1.7537-1.4202-0.53234-0.53253-1.0075-1.1213-1.4204-1.7545-0.7177-1.0987-1.2422-2.3347-1.523-3.6598-0.15395-0.72645-0.23624-1.4786-0.23624-2.2499 0-0.77126 0.08228-1.5234 0.23624-2.2496 0.28072-1.3255 0.80516-2.561 1.523-3.6601 0.41294-0.63305 0.8879-1.222 1.4203-1.7543 0.53217-0.53234 1.121-1.0074 1.7538-1.4204 1.0993-0.71773 2.3349-1.242 3.6607-1.5227 0.72622-0.15402 1.4784-0.23657 2.2494-0.23657 0.7715 0 1.5234 0.08255 2.2499 0.23657 1.3248 0.28067 2.561 0.80546 3.6601 1.5227 0.63305 0.41299 1.2215 0.88802 1.7541 1.4204 0.53211 0.53258 1.0069 1.1213 1.4204 1.7543 0.71772 1.0991 1.242 2.3348 1.5232 3.6601 0.15355 0.72622 0.23586 1.4784 0.23586 2.2496 0 0.77126-0.08231 1.5234-0.23586 2.2494z" fill="#fff"/><circle cx="32" cy="32" r="15" fill="#136041" stop-color="#000000" stroke-linecap="round" stroke-linejoin="round" stroke-miterlimit="168.2" stroke-width="15.389" style="paint-order:markers stroke fill"/><path d="m25.213 22.416c-0.43854 9e-3 -0.89099 0.23831-1.2676 0.69726-0.50994 0.62145-0.85886 1.5041-1.8477 4.6758l-0.80327 2.2596h-2.115l-4.156-6e-5 -0.0014 2.822 4.4509 1.3e-4s2.6618 0.0362 3.0506-0.12627c0.67081-0.28028 1.2259-1.2873 1.8516-3.1234 0.54249-1.5921 0.53145-1.6156 0.90235 1.8789 0.86844 8.1822 1.4878 10.084 3.291 10.084 1.456 0 2.228-1.8691 3.5644-8.6309 0.28061-1.4198 0.53772-2.608 0.57032-2.6406 0.10077-0.10097 0.21236 0.60078 0.5625 3.5273 0.54984 4.5957 0.87586 5.6474 1.8438 5.9668 0.46114 0.15219 0.65936 0.13913 1.1172-0.0781 0.78873-0.37428 1.3023-1.2368 2.543-4.2754l1.0863-2.5825h9.1212l-2e-3 -2.822h-8.3265s-1.929-0.14651-2.3623 0.283c-0.80534 0.79817-1.0788 1.6731-1.6334 3.1059-0.20611 0.53243-0.42094 1.0229-0.47852 1.0898-0.0576 0.067-0.19734-0.73229-0.31054-1.7754-0.63907-5.888-1.3692-7.7506-2.9941-7.7852-2.228-0.0474-2.6765 3.4076-3.6445 8.6309-0.41222 2.2242-0.55703 2.6188-0.70312 1.9238-0.0544-0.25892-0.32133-2.3588-0.59375-4.666-0.61313-5.1926-0.83928-6.5133-1.2734-7.4102-0.33434-0.69066-0.87757-1.0412-1.4414-1.0293z" fill="#fff" stop-color="#000000" stroke-linecap="round" stroke-linejoin="round" stroke-miterlimit="168.2" stroke-width="33.692" style="paint-order:markers stroke fill"/></g></g><style type="text/css">
	.st0{fill:#FEFEFE;}
	.st1{fill:#474747;}
	.st2{fill:#2F2F2F;}
	.st3{fill:#222222;}
	.st4{fill:#212121;}
	.st5{fill:#242424;}
	.st6{fill:#232323;}
	.st7{fill:#252525;}
	.st8{fill:#262626;}
	.st9{fill:#313131;}
	.st10{fill:#FDFDFD;}
	.st11{fill:#FCFCFC;}
	.st12{fill:#F6F6F6;}
	.st13{fill:#F4F4F4;}
	.st14{fill:#F2F2F2;}
</style></svg>
